<svg width="1002" height="1013" viewBox="0 0 1002 1013" fill="none" xmlns="http://www.w3.org/2000/svg">
<path d="M448.874 252.561C396.778 215.349 383.381 185.585 350.635 154.325C317.889 123.065 255.373 75.4501 194.346 65.0221C133.319 54.5951 72.0665 35.5711 65.4585 65.0221C58.8505 94.4731 127.365 165.363 241.978 214.916C356.59 264.469 448.874 252.561 448.874 252.561Z" fill="#0F0F0F"/>
<path d="M354.636 181.575C287.25 137.829 209.931 109.483 130.238 99.3081C117.344 97.6621 104.194 96.4363 92.1355 91.5833C80.0775 86.7303 69.0005 77.5282 65.4575 65.0222C41.0765 165.405 33.4935 272.664 65.1455 370.996C73.1945 396.002 86.3296 422.782 111.151 431.383C124.437 435.987 139.004 434.505 152.871 432.182C242.296 417.198 322.695 370.396 407.672 338.77C432.068 329.69 459.156 320.031 471.668 297.205C485.522 271.931 473.042 236.36 446.007 227.12C411.956 215.481 385.126 201.368 354.636 181.575Z" fill="#433236"/>
<path opacity="0.5" d="M446.008 227.119C411.956 215.481 385.126 201.368 354.637 181.575C320.889 159.666 284.65 141.621 246.869 127.786C237.61 131.563 228.63 135.974 220.171 141.501C217.934 142.963 215.711 144.474 213.592 146.104C212.097 147.254 210.711 148.526 209.245 149.71C209.286 149.677 207.63 151.013 206.797 151.668C206.285 152.12 205.681 152.651 205.486 152.831C204.512 153.731 203.581 154.676 202.663 155.632C198.171 160.307 193.258 166.546 190.385 170.33C180.767 182.997 171.5 195.946 161.39 208.232C152.932 218.511 143.48 229.243 131.75 235.88C121.152 241.877 107.8 243.572 97.0576 236.845C87.7696 231.029 82.5326 220.826 80.1806 210.396C74.5196 185.296 78.8415 157.819 84.0515 133.031C86.3425 122.129 89.1166 111.272 92.7986 100.75C93.7016 98.1702 94.6384 95.5133 95.6794 92.8853C94.4894 92.4793 93.3055 92.0511 92.1355 91.5801C80.0775 86.7271 69.0005 77.5253 65.4575 65.0193C41.0765 165.402 33.4935 272.661 65.1455 370.993C73.1945 395.999 86.3286 422.779 111.152 431.38C124.438 435.984 139.005 434.502 152.872 432.179C242.297 417.196 322.696 370.394 407.673 338.767C432.069 329.687 459.157 320.028 471.669 297.202C485.522 271.93 473.043 236.359 446.008 227.119Z" fill="#8D6071"/>
<path d="M446.008 227.119C438.46 224.539 431.28 221.829 424.324 218.971C397.723 218.693 371.395 212.688 345.505 205.396C313.836 196.477 281.932 185.567 248.789 184.208C231.789 183.51 215.138 185.538 198.827 190.419C187.624 193.772 179.945 198.283 173.123 206.82C173.461 206.459 171.063 209.792 170.823 210.157C170.005 211.397 169.22 212.658 168.452 213.93C167.118 216.14 165.851 218.391 164.606 220.652C161.547 226.203 158.629 231.829 155.507 237.346C147.24 251.954 137.793 265.806 126.083 277.895C105.439 299.206 80.1216 315.348 54.2366 329.744C57.1716 343.636 60.7715 357.403 65.1465 370.996C73.1955 396.002 86.3296 422.782 111.153 431.383C124.439 435.987 139.006 434.505 152.873 432.182C242.298 417.199 322.697 370.397 407.674 338.77C432.07 329.69 459.159 320.031 471.671 297.205C485.523 271.93 473.043 236.359 446.008 227.119Z" fill="#1A0E12"/>
<path d="M437.281 551.762C419.888 707.037 391.045 861.029 351.064 1012.07C260.008 989.977 191.495 916.631 109.397 871.472C129.392 778.688 143.972 684.369 174.22 594.404C204.468 504.439 252.114 417.515 326.345 358.368C357.756 333.34 395.638 313.154 435.787 314.234C489.637 315.683 459.684 368.96 454.838 401.194C447.324 451.176 442.906 501.549 437.281 551.762Z" fill="#433236"/>
<path opacity="0.5" d="M435.787 314.235C395.639 313.155 357.757 333.34 326.345 358.369C252.115 417.516 204.468 504.44 174.22 594.405C172.691 598.952 171.212 603.514 169.761 608.082C182.277 598.445 195.296 589.522 209.229 582.191C236.35 567.919 272.315 558.903 296.173 584.242C317.821 607.236 319.367 642.723 320.525 672.51C321.153 688.676 322.067 704.646 324.071 720.693C324.323 722.71 324.583 724.726 324.846 726.741C324.898 727.142 324.953 727.542 325.006 727.942C325.016 728.019 325.037 728.179 325.07 728.428C325.121 728.807 325.194 729.342 325.271 729.899C325.89 734.375 326.522 738.849 327.176 743.32C328.716 753.841 330.352 764.347 332.063 774.84C336.108 799.651 340.565 824.398 345.455 849.056C351.922 881.671 358.86 914.442 367.613 946.651C399.086 816.655 422.392 684.682 437.281 551.762C442.905 501.55 447.324 451.177 454.839 401.195C459.685 368.961 489.637 315.684 435.787 314.235Z" fill="#1A0E12"/>
<path d="M219.146 575.602C252.295 563.472 286.295 553.875 319.708 542.522C347.57 533.055 376.54 522.066 399.136 502.574C419.995 484.579 433.769 459.754 443.696 434.343C446.916 426.099 450.074 417.744 453.63 409.654C454.034 406.835 454.415 404.012 454.838 401.195C459.684 368.962 489.637 315.684 435.786 314.235C395.638 313.155 357.756 333.34 326.344 358.369C252.146 417.49 204.509 504.364 174.26 594.286C188.877 587.359 203.882 581.188 219.146 575.602Z" fill="#0F0F0F"/>
<path d="M328.498 216.767C280.28 209.119 231.715 226.35 187.367 246.762C126.798 274.64 69.4217 308.905 12.1807 343.098C7.85967 345.679 3.29053 348.53 1.20753 353.112C-1.79647 359.721 1.37543 367.354 4.51343 373.901C21.7224 409.804 38.9326 445.708 56.1416 481.611C65.4716 501.075 74.8126 520.561 85.5886 539.264C93.0826 552.27 101.475 565.122 113.202 574.491C117.763 578.135 123.034 581.292 128.855 581.729C133.839 582.103 138.73 580.454 143.439 578.778C255.757 538.8 357.516 469.554 435.923 379.743C448.556 365.273 460.854 349.805 466.647 331.491C475.069 304.863 467.847 261.699 439.47 249.951C423.398 243.298 404.277 240.877 387.62 234.762C368.268 227.66 348.965 220.014 328.498 216.767Z" fill="#433236"/>
<path opacity="0.5" d="M439.468 249.953C436.42 248.691 433.259 247.587 430.029 246.576C426.452 246.673 422.878 246.857 419.307 247.097C387.881 249.205 359.634 253.894 327.636 261.086C294.078 268.628 260.539 277.595 232.07 294.727C229.065 296.535 226.141 298.462 223.289 300.502C222.812 300.843 222.341 301.199 221.872 301.554C221.733 301.673 221.568 301.814 221.352 301.998C220.301 302.892 219.251 303.781 218.235 304.715C216.189 306.597 214.289 308.613 212.494 310.731C212.195 311.151 211.371 312.246 211 312.827C210.374 313.809 209.786 314.815 209.247 315.847C207.715 318.777 206.424 322.728 205.542 326.417C205.335 327.281 204.886 329.879 204.777 330.364C204.782 330.901 204.661 333.897 204.678 334.667C204.784 339.649 205.787 342.536 209.175 347.982C209.362 348.283 209.486 348.491 209.583 348.662C209.671 348.763 209.754 348.859 209.865 348.989C210.406 349.625 210.958 350.252 211.526 350.864C212.536 351.95 213.599 352.985 214.696 353.982C215.334 354.561 215.99 355.117 216.647 355.674C216.724 355.739 216.779 355.786 216.836 355.836C218.087 356.749 219.368 357.622 220.674 358.456C223.998 360.578 227.485 362.354 231.026 364.081C232.6 364.849 235.22 365.905 238.913 367.183C246.324 369.747 253.952 371.68 261.655 373.132C269.653 374.64 272.378 375.002 281.312 375.543C297.717 376.536 310.561 374.341 326.312 372.397C346.02 369.965 367.015 373.762 376.186 393.62C385.221 413.183 374.798 434.377 363.08 450.303C362.128 451.596 361.136 452.853 360.154 454.119C387.242 431.291 412.619 406.435 435.918 379.746C448.55 365.276 460.851 349.808 466.643 331.494C475.067 304.864 467.844 261.7 439.468 249.953Z" fill="#8D6071"/>
<path opacity="0.5" d="M138.8 505.45C131.647 483.391 129.122 460.15 125.207 437.386C121.375 415.109 116.796 391.097 103.699 372.155C87.9004 349.306 63.2586 336.663 37.0366 328.286C28.7436 333.213 20.4586 338.154 12.1806 343.099C7.85962 345.68 3.28947 348.531 1.20747 353.113C-1.79653 359.722 1.3744 367.355 4.5124 373.902L56.1406 481.612C65.4706 501.076 74.8116 520.563 85.5876 539.265C93.0816 552.271 101.473 565.122 113.2 574.492C117.761 578.136 123.033 581.293 128.854 581.73C133.838 582.104 138.729 580.456 143.437 578.779C155.315 574.551 167.068 569.977 178.694 565.105C159.807 550.974 145.882 527.292 138.8 505.45Z" fill="#8D6071"/>
<path opacity="0.5" d="M122.33 561.991C113.394 545.263 106.17 527.637 99.2614 509.996C89.1844 484.266 78.9095 458.768 67.2595 433.691C52.2875 401.461 36.4975 369.609 22.5095 336.931C19.0655 338.987 15.6226 341.043 12.1806 343.099C7.85962 345.68 3.28947 348.531 1.20747 353.113C-1.79653 359.722 1.3744 367.355 4.5124 373.902C21.7214 409.806 38.9316 445.709 56.1406 481.612C65.4706 501.076 74.8116 520.563 85.5876 539.265C93.0816 552.271 101.473 565.122 113.2 574.492C117.761 578.136 123.033 581.293 128.854 581.73C130.562 581.858 132.259 581.736 133.942 581.47C129.575 575.138 125.767 568.426 122.33 561.991Z" fill="#1A0E12"/>
<path d="M439.469 249.953C429.637 245.883 418.665 243.396 407.813 240.679C408.134 241.942 408.437 243.209 408.69 244.487C410.738 254.862 409.934 265.441 402.301 273.484C388.555 287.969 364.729 289.659 345.894 290C338.79 290.129 331.684 290.234 324.586 290.571C320.48 290.766 316.377 291.028 312.283 291.402C310.212 291.591 308.145 291.815 306.079 292.058C306.012 292.066 305.923 292.077 305.828 292.09C305.152 292.187 304.473 292.282 303.8 292.396C299.813 293.072 295.846 293.812 291.931 294.837C290.054 295.329 288.189 295.869 286.348 296.482C285.823 296.657 283.645 297.483 282.798 297.785C282.17 298.075 281.299 298.473 281.115 298.569C280.333 298.98 279.544 299.374 278.776 299.812C277.525 300.524 276.342 301.319 275.15 302.12C275.124 302.147 275.107 302.164 275.079 302.193C274.615 302.653 274.104 303.068 273.638 303.528C273.116 304.043 272.642 304.603 272.136 305.131C271.647 306.018 270.477 308.41 270.436 308.186C270.083 309.296 269.77 310.411 269.489 311.563V311.566C269.47 311.788 269.455 311.974 269.44 312.13C269.415 312.461 269.394 312.792 269.406 313.112C269.432 313.861 269.669 317.74 269.53 317.5C270.24 322 271.634 326.476 273.345 330.671C273.468 330.972 275.141 334.405 275.969 335.773C276.529 336.698 277.126 337.617 277.766 338.495C277.937 338.663 278.59 339.425 278.701 339.542C279.389 340.274 280.104 340.983 280.842 341.666C281.088 341.804 282.605 342.974 282.835 343.128C283.427 343.524 284.104 343.857 284.744 344.179C284.777 344.191 284.809 344.203 284.839 344.212C285.624 344.463 289.636 345.181 289.013 345.238C290.485 345.332 291.96 345.364 293.436 345.299C293.686 345.288 295.051 345.15 295.838 345.082C296.605 344.939 297.821 344.729 297.794 344.736C299.767 344.289 301.723 343.815 303.666 343.246C307.88 342.011 312.008 340.471 316.059 338.779C315.775 338.879 320.186 336.935 321.028 336.551C323.298 335.516 325.556 334.456 327.815 333.394C331.838 331.503 335.853 329.59 339.909 327.769C348.367 323.973 357.098 320.029 366.244 318.209C375.769 316.314 385.207 316.214 394.242 320.105C404.161 324.377 410.06 333.056 413.936 342.813C420.641 359.696 420.991 379.308 419.807 397.551C425.279 391.708 430.658 385.778 435.923 379.747C448.555 365.277 460.855 349.809 466.647 331.495C475.067 304.864 467.845 261.7 439.469 249.953Z" fill="#1A0E12"/>
<path d="M538.183 443.498C536.893 464.462 532.079 485.063 530.215 505.984C526.395 548.86 535.025 591.761 543.61 633.942C568.596 756.708 593.581 879.475 618.567 1002.24C701.254 986.734 779.215 946.851 840.176 888.874C844.154 885.09 848.153 881.102 850.36 876.075C852.999 870.064 852.793 863.241 852.542 856.68C849.188 769.239 844.974 678.441 804.219 601.006C777.391 550.031 736.036 507.7 710.272 456.179C698.268 432.173 689.713 406.29 674.631 384.087C661.857 365.282 644.804 349.756 626.771 335.914C607.617 321.212 586.259 307.852 562.302 304.835C534.322 301.311 501.729 312.173 515.716 342.981C530.515 375.576 540.424 407.086 538.183 443.498Z" fill="#433236"/>
<path opacity="0.5" d="M538.183 443.499C536.894 464.463 532.079 485.063 530.216 505.984C529.6 512.899 529.337 519.816 529.315 526.73C531.721 519.557 534.257 512.429 537.01 505.384C548.849 475.079 572.208 423.27 612.999 447.464C632.724 459.163 647.65 478.872 661.449 496.718C668.548 505.9 675.418 515.25 682.374 524.541C683.565 526.133 684.763 527.72 685.97 529.301C686.207 529.589 688.174 532.105 688.592 532.618C692.222 537.07 696.246 541.195 700.199 545.357C741.299 588.625 787.059 627.133 828.519 670.039C829.661 671.22 830.78 672.42 831.912 673.608C825.307 648.514 816.406 624.161 804.221 601.009C777.393 550.034 736.038 507.701 710.275 456.181C698.271 432.175 689.714 406.292 674.633 384.089C661.859 365.284 644.808 349.759 626.775 335.917C607.62 321.215 586.261 307.854 562.305 304.837C534.324 301.314 501.732 312.175 515.719 342.983C530.515 375.576 540.424 407.087 538.183 443.499Z" fill="#1A0E12"/>
<path d="M531.072 383.428C556.072 387.006 579.24 400.785 598.813 418.032C625.275 441.352 646.311 470.447 666.61 499.074C671.072 505.367 675.497 511.685 679.98 517.964C682.076 520.902 684.184 523.833 686.323 526.739C687.258 528.009 688.197 529.275 689.145 530.534C689.587 531.121 691.407 533.499 690.835 532.763C702.878 548.35 714.985 563.541 731.225 575.065C746.642 586.006 763.772 593.931 781.552 600.186C790.739 603.418 799.899 606.568 808.836 610.2C807.346 607.117 805.821 604.046 804.22 601.004C777.392 550.029 736.036 507.698 710.273 456.178C698.269 432.172 689.712 406.289 674.631 384.086C661.857 365.281 644.806 349.754 626.773 335.912C607.618 321.21 586.259 307.851 562.303 304.834C534.322 301.311 501.73 312.172 515.717 342.98C521.857 356.507 527.134 369.848 531.072 383.428Z" fill="#1A0E12"/>
<path opacity="0.5" d="M850.33 807.388C838.837 801.165 826.45 796.75 813.27 795.598C797.274 794.198 781.208 795.759 765.885 800.548C755.444 803.812 743.145 810.191 735.348 816.285C715.406 831.873 703.295 852.104 692.659 875.398C675.571 912.826 665.763 955.572 649.742 995.181C720.735 976.332 786.938 939.504 840.175 888.873C844.153 885.09 848.152 881.101 850.359 876.073C852.998 870.062 852.794 863.24 852.542 856.679C851.916 840.33 851.253 823.863 850.33 807.388Z" fill="#1A0E12"/>
<path d="M546.965 363.815C572.019 377.027 596.073 392.134 618.855 408.963C640.424 424.896 660.842 442.362 682.716 457.874C741.595 499.628 810.832 526.659 882.427 535.845C887.712 536.523 893.263 537.075 898.218 535.116C903.577 532.996 907.405 528.276 910.872 523.673C956.917 462.54 983.343 388.814 1001.61 314.492C928.88 276.015 852.394 241.166 770.695 231.419C709.059 224.066 643.789 232.454 588.766 262.29C571.723 271.532 548.999 282.164 538.106 299.053C523.723 321.352 521.283 350.272 546.965 363.815Z" fill="#433236"/>
<path opacity="0.5" d="M942.481 284.847C936.584 342.257 916.521 399.3 886.835 448.275C869.227 477.325 847.329 504.189 819.505 523.017C840.133 528.807 861.174 533.119 882.427 535.846C887.712 536.524 893.263 537.076 898.218 535.117C903.577 532.997 907.404 528.277 910.871 523.674C956.916 462.541 983.341 388.815 1001.61 314.493C982.177 304.213 962.476 294.199 942.481 284.847Z" fill="#8D6071"/>
<path opacity="0.5" d="M745.748 462.553C749.179 458.327 752.742 454.105 755.373 450.486C759.665 444.582 761.86 437.86 764.092 430.938C768.737 416.538 771.549 401.696 772.811 386.632C775.453 355.132 773.974 323.442 779.596 292.189C783.605 269.907 796.584 250.592 815.957 239.373C801.045 235.939 785.961 233.24 770.695 231.419C709.059 224.066 643.787 232.453 588.765 262.289C571.721 271.531 548.999 282.163 538.106 299.052C523.723 321.35 521.283 350.27 546.966 363.813C572.019 377.025 596.075 392.132 618.856 408.961C640.425 424.895 660.843 442.36 682.717 457.872C697.257 468.183 712.43 477.592 728.113 486.06C733.487 477.302 740.332 469.223 745.748 462.553Z" fill="#8D6071"/>
<path d="M709.887 475.241C701.187 463.732 692.907 449.848 694.262 434.844C695.556 420.515 703.251 409.734 717.797 404.91C723.235 403.107 728.959 402.402 734.494 400.972C737.296 400.248 738.397 399.921 739.47 399.378C739.616 399.304 740.09 399.021 740.423 398.838C740.539 398.642 740.745 398.352 741.098 397.911C741.145 397.852 741.195 397.774 741.244 397.688C741.518 396.913 741.693 396.448 741.796 396.198C741.816 396.133 741.845 396.069 741.863 396.004C742.256 394.543 742.725 393.105 743.102 391.636C743.208 391.224 743.28 390.807 743.35 390.389C743.223 389.134 743.349 387.559 743.415 386.279C743.424 386.117 743.43 385.973 743.435 385.844C743.366 385.407 743.294 384.971 743.182 384.542C742.841 383.237 742.422 381.959 742.068 380.66C742.013 380.461 741.973 380.3 741.939 380.157C741.842 380.013 741.731 379.84 741.594 379.615C740.936 378.538 740.391 377.391 739.72 376.318C739.021 375.201 737.009 372.665 737.911 373.708C737.193 372.857 736.468 372.013 735.705 371.198C733.486 368.829 731.068 366.698 728.603 364.595C728.42 364.439 728.251 364.299 728.094 364.171C727.32 363.599 726.547 363.027 725.761 362.472C724.28 361.426 722.773 360.417 721.247 359.439C718.194 357.481 715.059 355.654 711.872 353.921C708.123 351.883 704.3 349.983 700.429 348.187C698.507 347.295 696.571 346.437 694.63 345.586C694.448 345.506 694.306 345.443 694.164 345.381C694.091 345.351 694.025 345.325 693.927 345.284C692.914 344.867 691.901 344.451 690.885 344.044C655.315 329.764 617.517 321.117 580.037 313.564C565.004 310.534 549.595 308.325 534.349 305.565C523.516 326.704 523.724 351.557 546.967 363.815C572.02 377.027 596.075 392.134 618.856 408.963C640.425 424.897 660.844 442.363 682.718 457.875C691.738 464.271 701.003 470.317 710.48 476.011C710.284 475.754 710.081 475.498 709.887 475.241Z" fill="#1A0E12"/>
<path d="M586.691 386.726C586.963 368.442 600.879 356.56 618.022 353.27C648.113 347.495 678.256 365.068 707.221 365.773C722.074 366.135 737.612 363.262 752.194 360.644C768.67 357.686 784.976 353.765 800.982 348.857C847.245 334.67 892.117 311.421 927.244 277.88C877.081 255.501 825.043 237.902 770.695 231.419C709.059 224.066 643.787 232.453 588.765 262.289C571.721 271.531 548.999 282.163 538.106 299.052C523.723 321.35 521.283 350.27 546.966 363.813C560.519 370.96 573.768 378.681 586.694 386.909C586.695 386.85 586.69 386.788 586.691 386.726Z" fill="#0F0F0F"/>
<path d="M975.714 351.861C963.256 366.478 950.338 380.732 940.13 397.076C927.994 416.506 922.239 437.702 916.373 459.661C909.699 484.647 903.802 509.821 898.29 535.082C903.61 532.949 907.421 528.255 910.873 523.673C955.693 464.167 981.92 392.729 1000.13 320.424C992.704 331.395 984.336 341.744 975.714 351.861Z" fill="#1A0E12"/>
<path d="M614.152 336.274C633.197 340.812 652.953 341.527 672.526 341.058C753.961 339.107 834.952 316.574 905.151 275.252C912.74 270.785 920.499 265.805 924.915 258.187C931.002 247.687 929.455 234.593 927.377 222.636C913.31 141.718 881.114 60.5421 819.096 6.69415C815.836 3.86315 812.302 1.01833 808.056 0.228329C803.227 -0.669671 798.362 1.24115 793.846 3.17315C693.95 45.9022 606.933 118.233 546.663 208.635C537.666 222.131 528.84 236.442 515.302 245.376C507.099 250.79 497.176 254.24 491.258 262.088C483.269 272.682 485.256 287.716 489.698 300.219C498.755 325.709 513.828 333.822 538.223 327.051C565.042 319.608 587.837 330.003 614.152 336.274Z" fill="#433236"/>
<path opacity="0.5" d="M927.378 222.636C913.311 141.717 881.115 60.5421 819.098 6.69415C815.837 3.86315 812.303 1.01833 808.057 0.228329C803.228 -0.669671 798.364 1.24115 793.848 3.17315C777.92 9.98615 762.324 17.5591 747.107 25.8301C748.262 35.7681 749.594 45.6784 751.546 55.4874C755.859 77.1614 764.055 97.0724 774.362 116.539C785.149 136.914 797.572 156.43 810.965 175.185C821.805 190.366 835.265 202.755 848.183 216.121C859.147 227.465 868.596 239.416 874.874 253.961C878.942 263.387 882.798 274.712 877.451 284.488C867.431 302.806 843.661 292.544 829.885 285.708C811.836 276.752 795.014 265.342 778.211 254.286C758.944 241.609 739.167 226.583 716.963 219.896C708.941 217.48 701.003 216.399 692.619 216.716C684.609 217.019 678.067 218.285 672.36 219.523C660.576 222.08 649.444 226.926 637.808 230.008C625.563 233.251 610.941 234.85 600.771 225.628C591.315 217.054 588.441 201.336 592.845 189.562C597.605 176.834 606.719 165.918 615.095 155.432C619.041 150.493 623.108 145.652 627.143 140.786C628.255 139.446 629.444 138.124 630.539 136.748C630.651 136.476 631.518 135.072 631.736 134.629C632.774 132.52 634.112 130.497 635.286 128.46C643.367 114.43 651.836 100.031 658.988 85.0972C615.737 120.459 577.658 162.149 546.666 208.636C537.669 222.132 528.843 236.443 515.307 245.377C507.104 250.791 497.18 254.242 491.262 262.089C483.273 272.683 485.262 287.717 489.704 300.22C498.76 325.71 513.832 333.823 538.228 327.052C565.045 319.609 587.84 330.004 614.155 336.274C633.2 340.812 652.956 341.527 672.53 341.058C753.965 339.107 834.956 316.574 905.155 275.252C912.743 270.785 920.502 265.805 924.919 258.187C931.003 247.688 929.457 234.593 927.378 222.636Z" fill="#8D6071"/>
<path d="M728.898 330.08C709.596 327.329 686.253 322.756 672.495 307.633C658.371 292.108 653.246 267.342 673.992 254.999C681.724 250.399 690.98 248.517 699.752 247.13C705.243 246.262 710.765 245.575 716.28 244.882C718.63 244.587 720.979 244.294 723.328 243.996C723.588 243.963 723.796 243.937 723.967 243.916C724.02 243.908 724.053 243.904 724.111 243.895C725.256 243.731 726.403 243.571 727.546 243.396C731.859 242.737 736.17 241.986 740.398 240.9C742.3 240.411 744.139 239.764 746.018 239.209C746.079 239.191 746.144 239.168 746.211 239.144C747.67 238.318 747.913 238.242 747.641 238.423C747.81 238.346 747.983 238.254 748.144 238.189C748.416 238.079 748.68 237.917 748.921 237.743C748.938 237.724 748.951 237.711 748.967 237.692C748.916 237.505 748.864 237.319 748.813 237.132C748.797 237.1 748.78 237.068 748.762 237.037C748.65 236.838 748.513 236.654 748.393 236.46C748.338 236.399 748.293 236.35 748.229 236.279C748.216 236.198 748.156 236.103 748.075 236.002C746.956 235.354 743.538 233.797 744.261 233.947C742.462 233.343 740.647 232.811 738.786 232.406C737.998 232.235 737.204 232.098 736.412 231.945C736.165 231.897 735.962 231.856 735.793 231.821C735.644 231.807 735.495 231.794 735.298 231.774C723.874 230.634 712.338 231.363 700.954 232.614C699.293 232.796 697.635 232.997 695.977 233.2C695.539 233.253 695.239 233.289 694.998 233.318C694.802 233.346 694.565 233.379 694.281 233.418C691.614 233.789 688.949 234.187 686.288 234.598C681.619 235.32 676.961 236.102 672.297 236.85C662.537 238.414 654.171 239.009 644.291 237.934C631.842 236.579 619.844 234.27 612.541 222.953C605.498 212.041 600.768 195.837 605.197 183.468C606.081 180.999 606.862 178.152 608.019 175.812C608.086 175.49 608.147 175.21 608.202 174.971C608.077 174.58 607.952 174.189 607.828 173.798C606.058 171.527 604.882 168.772 603.053 166.485C598.448 160.726 594.311 156.331 591.681 150.027C575.411 168.547 560.342 188.12 546.665 208.635C537.668 222.131 528.842 236.442 515.306 245.376C507.103 250.79 497.18 254.241 491.262 262.088C483.273 272.682 485.261 287.716 489.703 300.219C498.759 325.709 513.831 333.822 538.227 327.051C565.044 319.608 587.839 330.003 614.154 336.273C633.199 340.811 652.955 341.526 672.529 341.057C699.152 340.419 725.725 337.567 751.893 332.592C744.205 331.993 736.536 331.169 728.898 330.08Z" fill="#1A0E12"/>
<path d="M593.137 303.256C594.405 295.495 598.711 288.522 602.665 281.839C605.353 277.296 608.141 272.81 610.728 268.207C611.707 266.465 612.626 264.697 613.553 262.927C613.615 262.808 613.894 262.194 614.143 261.653C613.695 261.049 613.237 260.447 613.033 260.255C609.954 257.356 607.997 255.816 604.508 253.491C596.78 248.339 588.576 243.92 581.126 238.354C572.793 232.127 568.103 225.16 563.737 215.82C561.513 211.06 559.407 206.222 556.825 201.64C556.073 200.307 555.262 199.021 554.418 197.75C554.343 197.723 554.272 197.691 554.198 197.663C551.648 201.293 549.127 204.944 546.665 208.635C537.668 222.131 528.842 236.442 515.306 245.376C507.103 250.79 497.18 254.241 491.262 262.088C483.273 272.682 485.261 287.716 489.703 300.219C498.759 325.709 513.831 333.822 538.227 327.051C556.925 321.861 573.667 325.345 591.011 330.054C590.972 321.075 591.694 312.085 593.137 303.256Z" fill="#312020"/>
<path d="M834.307 39.7231C841.007 60.5171 843.745 82.3312 848.61 103.575C849.858 109.024 851.232 114.449 852.873 119.794C853.662 122.364 854.508 124.917 855.439 127.44C856.428 130.121 856.204 129.685 857.238 131.901C862.441 143.056 870.039 153.094 876.891 163.271C890.063 182.835 903.812 202.277 913.633 223.815C918.591 234.689 922.449 245.791 925.492 257.097C930.877 246.789 929.387 234.186 927.379 222.637C913.312 141.718 881.116 60.5433 819.099 6.69531C817.65 5.43731 816.142 4.18722 814.547 3.10522C823.561 13.2542 829.84 25.8571 834.307 39.7231Z" fill="#1A0E12"/>
<path d="M431.304 302.144C431.426 323.186 429.072 344.678 434.723 364.947C435.622 368.171 436.919 371.599 439.78 373.336C444.034 375.917 449.437 373.62 453.979 371.588C488.986 355.923 531.59 358.527 564.428 378.34C567.985 331.819 567.639 285 563.395 238.537C562.803 232.057 561.947 225.133 557.678 220.224C553.776 215.737 547.762 213.808 542.011 212.29C512.207 204.421 457.201 194.429 428.281 209.959C412.519 218.423 421.608 231.339 424.949 246.261C429.054 264.589 431.194 283.361 431.304 302.144Z" fill="#433236"/>
<path opacity="0.5" d="M442.134 226.064C461.062 223.253 480.135 221.304 499.257 220.505C515.867 219.811 532.503 219.982 548.985 222.32C552.711 222.848 556.584 223.522 560.392 224.493C559.683 222.962 558.804 221.519 557.677 220.223C553.775 215.737 547.76 213.807 542.011 212.289C512.206 204.42 457.201 194.428 428.281 209.958C418.641 215.135 418.3 221.979 420.252 229.926C427.477 228.172 434.934 227.133 442.134 226.064Z" fill="#1A0E12"/>
<path opacity="0.5" d="M559.385 291.553C533.04 301.088 502.559 301.707 474.845 301.54C461.578 301.46 448.283 300.9 435.083 299.525C433.829 299.394 432.543 299.272 431.247 299.15C431.264 300.149 431.299 301.147 431.304 302.145C431.426 323.187 429.072 344.679 434.723 364.948C435.622 368.172 436.919 371.601 439.781 373.337C444.034 375.918 449.438 373.621 453.979 371.589C488.986 355.924 531.59 358.528 564.428 378.341C566.708 348.525 567.375 318.586 566.45 288.697C564.12 289.752 561.746 290.698 559.385 291.553Z" fill="#1A0E12"/>
</svg>
