<svg width="1000" height="1000" viewBox="0 0 1000 1000" fill="none" xmlns="http://www.w3.org/2000/svg">
<g clip-path="url(#clip0_50_20418)">
<path d="M1000 0H0V1000H1000V0Z" fill="#F4D5C5"/>
<path d="M1000 962.32V1000H946.36C948.59 978.23 973.23 966.61 992.4 963.34C994.91 962.91 997.45 962.56 1000 962.32Z" fill="#D9B29F"/>
<path d="M1000 927.31V991.01C995.37 993.11 991.99 996.3 988.89 1000H933.76C931.43 994.99 930.88 989.18 931.95 983.74C933.16 977.59 936.35 971.92 940.62 967.34C945.49 962.11 951.66 958.31 957.27 953.89C965.12 947.7 971.98 940.22 980.44 934.9C986.4 931.16 993.08 928.58 1000 927.31Z" fill="#C19883"/>
<path d="M61.06 1000H0V962.32C12.5 961.08 25.27 962.1 36.93 966.64C40.6 968.06 44.19 969.91 47.44 972.2C52.95 976.08 57.44 981.19 59.52 987.54C60.84 991.56 61.1 995.75 61.06 1000Z" fill="#D9B29F"/>
<path d="M52.12 962.51C51.09 965.97 49.49 969.24 47.44 972.2C42.28 979.66 34.26 985.19 25.35 986.99C18.54 988.36 11.42 987.71 4.68 989.39C2.98 989.81 1.43 990.36 0 991.01V927.31C4.35 926.51 8.79 926.22 13.21 926.47C24.65 927.13 35.86 931.43 44.8 938.61C47.22 940.55 49.51 942.73 51.04 945.43C53.94 950.53 53.79 956.89 52.12 962.51Z" fill="#C19883"/>
<path d="M244 967.53C243.7 976.56 241 985.38 237.35 993.64C236.4 995.79 235.38 997.92 234.26 1000H170.28C169.91 998.71 169.61 997.41 169.39 996.1C167.9 987.25 169.34 978.18 172.4 969.81C172.47 969.63 172.53 969.46 172.6 969.28C175.5 961.56 178.81 956.85 179.01 948.47C179.34 933.88 187.59 919.53 200.6 912.65C203.21 911.27 206.1 910.16 209.04 910.37C213.02 910.64 216.39 913.28 218.85 916.49C219.28 917.05 219.69 917.63 220.06 918.22C222.58 922.17 224.18 926.66 226.82 930.53C229.65 934.68 233.58 937.97 236.61 941.99C236.99 942.5 237.36 943.01 237.7 943.54C242.35 950.51 244.27 959.13 244 967.53Z" fill="#D9B29F"/>
<path d="M210.543 940.323C211.034 934.801 210.583 928.95 213.13 924.026C215.194 920.036 219.002 917.162 221.059 913.168C222.875 909.642 223.174 905.472 222.477 901.568C221.242 894.649 216.868 888.354 210.814 884.784C203.406 880.415 194.408 879.61 188.579 886.063C181.54 893.856 174.533 901.583 168.073 909.878C163.089 916.278 158.204 923.205 156.956 931.22C156.069 936.916 157.1 942.73 158.428 948.34C159.77 954.006 161.526 959.803 165.38 964.167C172.537 972.271 185.827 973.098 195.066 967.482C204.306 961.867 209.587 951.092 210.543 940.323Z" fill="#C19883"/>
<path d="M261.41 980.65C260.99 985.14 263.1 989.43 264.32 993.77C264.89 995.82 265.26 997.9 265.42 1000H204.15C208.87 996 213.67 992.05 216.63 986.68C222.65 975.74 219.85 961.02 227.61 951.25C230.26 947.91 233.81 945.27 237.7 943.54C247.5 939.19 259.51 940.66 264.97 951.58C267.72 957.07 267.69 963.74 265.5 969.48C264.08 973.2 261.79 976.68 261.41 980.65Z" fill="#C19883"/>
<path d="M786.07 1000H723.89C725.84 993.83 729.36 988.19 734.48 984.29C736.55 982.71 738.81 981.49 741.19 980.6C752.08 976.52 765.5 979.36 774.81 986.77C779.4 990.42 783.12 994.97 786.07 1000Z" fill="#D9B29F"/>
<path d="M747.12 1000H694.61C699.62 991.17 707.64 983.96 716.92 979.71C724.42 976.27 733.94 974.86 740.43 979.96C740.69 980.17 740.95 980.38 741.19 980.6C746.32 985.24 747.53 992.91 747.12 1000Z" fill="#C19883"/>
<path d="M590.48 1000H506.68C508.68 995.5 511.13 991.11 514.76 987.81C518.9 984.05 524.24 981.97 529.29 979.6C534.79 977.02 540.12 973.99 545.67 971.57C548.34 970.41 551.06 969.39 553.87 968.63C562.54 966.27 572.67 966.8 579.4 972.76C584.25 977.06 586.43 983.13 588.03 989.55C588.91 993.01 589.61 996.57 590.48 1000Z" fill="#D9B29F"/>
<path d="M628.76 1000H621.54C621.9 999.78 622.28 999.61 622.68 999.47C624.66 998.79 626.81 999.15 628.76 1000Z" fill="#C19883"/>
<path d="M594.87 1000H491.67C490.74 996.57 490.27 993.11 490.82 989.59C492.09 981.38 498.59 975.11 504.73 969.49C510.12 964.56 517.19 959.27 524.02 961.85C527.41 963.14 529.83 966.14 532.87 968.12C536.67 970.6 541.08 971.31 545.67 971.57C549.88 971.81 554.23 971.66 558.38 972.16C570.05 973.56 580.49 980.43 588.03 989.55C589.46 991.29 590.79 993.1 592 994.98C593.04 996.59 594.02 998.27 594.87 1000Z" fill="#C19883"/>
<path d="M1000 0V86.35C994.58 87.45 989.26 88.06 984.37 85.76C980.15 83.79 977.11 79.91 974.97 75.77C972.83 71.64 971.44 67.16 969.54 62.91C966.91 57.04 963.33 51.65 960.18 46.04C958.16 42.44 956.3 38.73 954.64 34.95C952.26 29.52 950.25 23.93 948.65 18.22C948.17 16.52 947.73 14.81 947.35 13.08C946.51 9.19 946.02 5.23 946.26 1.26C946.29 0.84 946.32 0.42 946.36 0L1000 0Z" fill="#D9B29F"/>
<path d="M988.89 0C986.6 2.71 984.46 5.7 982.09 8.73C974.75 18.1 962.19 18.89 951.72 14.99C950.24 14.44 948.77 13.8 947.35 13.08C942.22 10.51 937.64 6.83 934.76 1.92C934.4 1.3 934.06 0.66 933.76 0H988.89Z" fill="#C19883"/>
<path d="M1000 45.6602V95.7002C998.74 95.9302 997.48 96.1202 996.22 96.2902C983.36 97.9802 969.36 97.0002 958.91 89.3202C954.83 86.3102 951.49 82.4302 948.2 78.5702C943.1 72.5902 937.82 66.1202 936.77 58.3402C935.82 51.3202 938.74 43.8902 944.23 39.4102C947.19 36.9902 950.85 35.4702 954.64 34.9502C957.86 34.5102 961.19 34.7902 964.26 35.8602C970.93 38.1802 976.11 43.7702 982.84 45.9302C988.36 47.7102 994.31 46.9902 1000 45.6602Z" fill="#C19883"/>
<path d="M1000 137.08V229.34C996.39 230.8 992.66 231.97 988.89 232.87C977.69 235.55 966.09 236.04 954.58 236.04C950.06 236.04 945.48 235.96 941.08 234.9C940.71 234.82 940.34 234.72 939.98 234.62C928.91 231.5 920.51 221.62 917.31 210.56C914.1 199.51 915.57 187.51 919.41 176.67C920.09 174.78 920.84 172.9 921.68 171.06C924 165.97 926.99 161.18 930.87 157.16C936.37 151.47 941.55 152.25 947.65 148.58C950.94 146.6 954.34 144.94 957.84 143.55C968.6 139.26 980.2 137.56 991.9 137.06C994.59 136.95 997.31 136.89 1000 137.08Z" fill="#D9B29F"/>
<path d="M983.358 198.895C989.927 197.22 994.574 190.644 995.072 183.884C995.571 177.124 992.434 170.439 987.725 165.563C982.057 159.693 974.279 157.355 968.285 152.116C961.256 145.972 953.754 140.302 946.115 134.942C941.088 131.415 935.517 127.911 929.378 128.061C919.466 128.303 912.02 138.675 912.116 148.59C912.212 158.504 918.013 167.517 924.913 174.637C938.049 188.194 955.984 197.006 974.744 199.118C977.615 199.441 980.559 199.608 983.358 198.895Z" fill="#C19883"/>
<path d="M1000 212.43V245.98C998.02 246.68 996.09 247.49 994.32 248.62C991.59 250.34 989.34 252.7 986.94 254.85C983.58 257.87 979.87 260.5 975.92 262.69C972.53 264.58 968.8 266.16 964.92 266.02C960.37 265.87 956.16 263.31 953.1 259.94C950.04 256.57 947.96 252.44 946.05 248.3C944.05 243.98 942.17 239.52 941.08 234.9C940.66 233.14 940.36 231.35 940.21 229.54C939.67 222.98 941.4 215.95 946.14 211.37C951.76 205.95 960.42 204.99 968.14 206.18C975.86 207.37 983.2 210.37 990.89 211.78C993.85 212.32 996.96 212.59 1000 212.43Z" fill="#C19883"/>
<path d="M1000 349.54V466.54C997.15 467.73 994.16 468.58 991.1 469.03C981.37 470.45 971.01 467.67 963.62 461.19C955.45 454.04 951.39 443.04 950.78 432.2C950.73 431.35 950.71 430.51 950.7 429.67C950.61 423.09 951.61 416.54 953.16 410.11C953.95 406.78 954.89 403.49 955.9 400.23C957.38 395.47 960.18 391.69 962.03 387.18C963.87 382.66 964.95 378.71 967.98 374.67C974.45 366.02 981.78 357.48 991.32 352.61C992.26 352.12 993.22 351.68 994.21 351.27C996.06 350.51 998.01 349.93 1000 349.54Z" fill="#D9B29F"/>
<path d="M1000 354.63V385.93C999.93 385.95 999.87 385.97 999.81 385.99C992.65 388.43 985.69 394.6 980.76 400.13C975.67 405.84 970.69 413.13 963.07 413.69C959.46 413.96 955.92 412.5 953.16 410.11C952.19 409.29 951.32 408.34 950.58 407.32C947.71 403.36 946.52 398.41 946.28 393.53C945.77 383.36 949.25 373.01 955.94 365.32C962.62 357.63 972.45 352.72 982.62 352.15C985.53 351.99 988.44 352.17 991.32 352.61C994.25 353.05 997.15 353.75 1000 354.63Z" fill="#C19883"/>
<path d="M1000 440.15V488.67C995.82 491.99 991.06 494.55 985.96 496.1C973.79 499.8 959.83 497.51 949.82 489.65C942.7 484.07 937.84 476.15 933.58 468.17C932.01 465.25 930.49 462.25 929.83 459.01C928.97 454.76 929.63 450.34 930.87 446.19C932.03 442.31 933.74 438.51 936.5 435.54C940.1 431.67 945.43 429.52 950.7 429.67C951.76 429.7 952.81 429.82 953.86 430.04C960.07 431.35 965.44 436.09 967.52 442.09C969.13 446.76 968.85 451.98 970.89 456.48C972.94 460.97 979.13 464.28 982.77 460.94C986.25 457.76 984.25 451.8 986.22 447.52C988.5 442.57 994.54 441.86 1000 440.15Z" fill="#C19883"/>
<path d="M1000 552.88V622.32C994.52 622.56 989.01 621.97 983.7 620.69C974.81 618.53 966.32 614.47 959.43 608.43C952.55 602.4 947.33 594.37 945.19 585.47C944.63 583.13 944.3 580.7 944.24 578.26C944.05 571.26 946.05 564.22 950.86 559.23C956.13 553.76 963.97 551.48 971.55 551.09C979.13 550.7 986.68 551.98 994.25 552.55C996.16 552.69 998.08 552.79 1000 552.88Z" fill="#D9B29F"/>
<path d="M1000 605.69V671.69C996.37 670.7 992.71 669.86 989.02 669.35C974.83 667.39 959.94 670.35 946.31 665.89C936.69 662.74 928.45 656.01 922.58 647.75C916.72 639.5 913.12 629.78 911.17 619.85C910.04 614.12 909.44 608.19 910.53 602.45C912.1 594.15 917.35 586.63 924.58 582.27C930.43 578.76 937.49 577.36 944.24 578.26C945.85 578.47 947.44 578.82 948.99 579.3C963.86 583.9 973.43 599.28 988.27 603.99C992.09 605.21 996.01 605.64 1000 605.69Z" fill="#C19883"/>
<path d="M62.2 52.43C60.34 60.41 55.88 67.55 50.82 73.99C48.64 76.76 46.28 79.48 43.28 81.33C43 81.5 42.72 81.67 42.43 81.82C35.95 85.33 28.23 84.43 20.56 84.05C17.62 83.9 14.69 83.83 11.84 84.11C7.93 84.49 3.94 85.55 0 86.35V0H61.06C61.05 1.7 60.98 3.41 60.91 5.13C60.82 7.46 60.73 9.8 60.76 12.12C60.93 25.63 65.25 39.28 62.2 52.43Z" fill="#D9B29F"/>
<path d="M90.961 31.0311C89.585 25.7531 86.518 21.0981 83.44 16.5961C81.154 13.2521 78.781 9.87413 75.56 7.41713C66.349 0.392128 56.761 5.91113 49.28 12.5351C45.554 15.8341 41.554 19.6651 41.229 24.6311C40.957 28.7931 43.362 32.5831 44.827 36.4881C46.698 41.4741 47.06 47.0151 45.855 52.2021C44.638 57.4401 41.899 62.2091 40.475 67.3951C39.051 72.5801 39.24 78.7831 43.09 82.5371C45.892 85.2691 50.064 86.1181 53.976 85.9921C65.466 85.6221 75.528 78.0621 83.097 69.4091C85.461 66.7071 87.693 63.8251 89.095 60.5201C90.877 56.3211 91.227 51.6761 91.556 47.1271C91.944 41.7471 92.323 36.2511 90.961 31.0311Z" fill="#C19883"/>
<path d="M26.38 70.2799C25.42 75.1899 23.48 80.0099 20.56 84.0499C18.84 86.4299 16.78 88.5299 14.36 90.2299C10.14 93.2099 5.12 94.7699 0 95.6999V45.6599C0.77 45.4799 1.54 45.2899 2.3 45.0899C10.15 43.0399 20.31 45.3399 24.49 52.9099C27.37 58.1099 27.53 64.4399 26.38 70.2799Z" fill="#C19883"/>
<path d="M745.454 414.528C745.102 420.254 746.287 425.966 747.84 431.488C750.565 441.176 754.446 450.539 759.374 459.313C762.524 464.921 766.108 470.305 768.735 476.177C770.636 480.427 772.023 484.906 774.163 489.04C776.303 493.175 779.345 497.054 783.561 499.03C792.013 502.993 801.746 498.286 811.036 497.374C821.653 496.331 833.382 500.181 842.471 494.595C845.474 492.749 847.831 490.031 850.01 487.261C855.075 480.822 859.536 473.682 861.389 465.701C864.444 452.545 860.12 438.893 859.957 425.388C859.857 417.142 861.286 408.643 858.715 400.808C855.408 390.732 846.01 383.747 836.127 379.903C822.085 374.441 806.45 374.077 791.597 376.606C772.056 379.936 746.844 391.95 745.454 414.528Z" fill="#D9B29F"/>
<path d="M750.915 428.257C761.385 432.158 773.939 431.371 781.285 421.996C787.872 413.588 792.655 405.448 803.877 402.656C810.614 400.98 817.736 401.632 824.54 400.257C836.99 397.741 847.691 387.957 851.308 375.781C852.978 370.159 853.137 363.793 850.237 358.695C848.704 356 846.413 353.814 843.994 351.874C835.052 344.703 823.847 340.399 812.404 339.741C800.961 339.083 789.336 342.074 779.631 348.172C771.169 353.49 764.311 360.969 756.462 367.155C750.851 371.578 744.685 375.38 739.813 380.606C735.54 385.189 732.35 390.863 731.141 397.011C729.932 403.159 730.79 409.776 733.954 415.185C737.629 421.47 744.092 425.715 750.915 428.257Z" fill="#C19883"/>
<path d="M890.154 444.3C888.778 439.022 885.711 434.368 882.633 429.865C880.347 426.521 877.974 423.143 874.753 420.686C865.542 413.661 855.954 419.18 848.473 425.804C844.747 429.103 840.747 432.934 840.422 437.9C840.15 442.061 842.555 445.852 844.02 449.757C845.891 454.743 846.253 460.284 845.048 465.471C843.831 470.709 841.092 475.478 839.668 480.664C838.244 485.849 838.433 492.052 842.283 495.806C845.085 498.538 849.257 499.387 853.169 499.261C864.659 498.891 874.721 491.331 882.29 482.678C884.654 479.976 886.886 477.094 888.288 473.789C890.07 469.59 890.421 464.945 890.749 460.396C891.137 455.016 891.516 449.52 890.154 444.3Z" fill="#C19883"/>
<path d="M801.49 458.361C795.121 460.023 788.299 461.217 782.033 459.2C775.307 457.035 770.126 451.452 763.453 449.131C756.762 446.803 748.905 448.195 743.421 452.679C737.936 457.163 735.011 464.586 735.963 471.607C737.018 479.394 742.294 485.858 747.392 491.838C750.682 495.697 754.023 499.581 758.108 502.587C768.556 510.273 782.554 511.255 795.413 509.559C801.797 508.717 808.29 507.209 813.557 503.505C820.067 498.926 824.043 491.357 825.578 483.548C826.725 477.715 826.561 471.385 823.686 466.182C819.503 458.608 809.339 456.312 801.49 458.361Z" fill="#C19883"/>
<path d="M119.23 134.781C115.382 134.532 111.368 134.525 107.867 136.14C102.698 138.524 99.684 143.907 97.263 149.059C94.091 155.811 91.285 163.109 92.042 170.53C92.691 176.89 95.928 182.734 99.936 187.715C103.943 192.695 108.741 196.972 113.165 201.587C118.418 207.067 123.184 213.066 129.084 217.844C134.983 222.621 142.344 226.162 149.916 225.615C159.229 224.943 167.232 218.101 171.67 209.885C176.02 201.833 177.512 192.368 176.421 183.281C175.33 174.194 171.728 165.492 166.554 157.943C161.414 150.444 154.535 143.983 146.409 139.832C138.041 135.557 128.469 135.38 119.23 134.781Z" fill="#D9B29F"/>
<path d="M111.606 108.071C111.74 119.369 115.249 130.824 122.571 139.429C131.373 149.773 145.123 155.602 152.001 167.314C159.883 180.738 156.727 198.57 164.719 211.928C169.054 219.174 176.57 224.437 184.862 226.033C193.154 227.629 202.087 225.532 208.802 220.413C213.445 216.873 216.962 212.06 219.95 207.044C225.134 198.345 228.955 188.715 230.109 178.654C231.263 168.593 229.631 158.077 224.575 149.303C217.419 136.884 204.369 129.13 195.116 118.184C183.717 104.701 177.871 86.1879 163.201 76.3629C154.738 70.6959 135.238 61.4759 125.739 68.8999C115.441 76.9499 111.462 95.8779 111.606 108.071Z" fill="#C19883"/>
<path d="M234.26 0C231.12 5.87 227.26 11.35 222.31 15.76C215.61 21.74 206.69 25.63 197.74 24.9C195.15 24.69 192.65 24.09 190.28 23.15C180.66 19.38 173.21 10.22 170.28 0H234.26Z" fill="#D9B29F"/>
<path d="M250.2 33.39C238.37 42.43 221.95 44.47 207.74 40.04C199.86 37.58 191.84 32.27 190.42 24.14C190.36 23.81 190.32 23.48 190.28 23.15C189.51 15.72 194.52 8.68 200.1 3.55C201.41 2.34 202.78 1.17 204.15 0H265.42C266.42 12.59 260.33 25.64 250.2 33.39Z" fill="#C19883"/>
<path d="M34.21 182.46C33.94 195.39 28.42 208.13 19.17 217.16C13.71 222.49 7.1 226.48 0 229.34V137.08C3.07 137.28 6.1 137.8 8.97 138.9C13.46 140.61 17.33 143.67 20.63 147.17C28.42 155.45 33.22 166.47 34.08 177.79C34.2 179.35 34.24 180.9 34.21 182.46Z" fill="#D9B29F"/>
<path d="M51.46 188.96C51.06 193.5 49.2 197.76 47.22 201.85C38.69 219.48 26.28 236.81 7.85 243.43C5.27 244.36 2.58 245.07 0 245.98V212.43C4.84 212.19 9.52 210.86 13.25 207.84C18.22 203.81 20.63 197.52 23.87 192C26.04 188.31 29.67 181.8 34.08 177.79C37.96 174.26 42.44 172.65 47.07 176.58C50.54 179.53 51.85 184.43 51.46 188.96Z" fill="#C19883"/>
<path d="M29.45 424.54C27.91 430.47 25.88 436.27 23.33 441.86C23.24 442.05 23.15 442.25 23.06 442.44C21.1 446.68 18.83 450.79 15.92 454.45C11.73 459.72 6.19 463.94 0 466.54V349.54C9.83 347.61 20.75 350.29 26.31 358.44C29.05 362.46 30.23 367.32 31.1 372.1C31.94 376.71 32.53 381.38 32.86 386.07C33.77 398.99 32.7 412.06 29.45 424.54Z" fill="#D9B29F"/>
<path d="M32.42 413.77C31.61 417.41 30.59 420.99 29.45 424.54C27.51 430.56 25.23 436.48 23.06 442.44C21.6 446.44 20.19 450.45 18.96 454.52C17.25 460.18 15.88 465.96 13.48 471.36C10.48 478.1 5.79 484.11 0 488.67V440.15C2.07 439.49 4.06 438.69 5.72 437.46C9.95 434.31 11.51 428.05 9.23 423.3C7.15 418.94 2.31 415.73 2.19 410.9C2.01 404.03 11.42 400.28 12.23 393.46C13.05 386.54 5.19 384.26 0 385.93V354.63C0.42 354.76 0.83 354.89 1.25 355.03C11.23 358.3 20.84 363.83 26.88 372.43C29.79 376.57 31.72 381.2 32.86 386.07C34.96 394.99 34.42 404.73 32.42 413.77Z" fill="#C19883"/>
<path d="M804.12 802.24C800.145 815.06 797.03 828.381 797.782 841.782C798.534 855.183 803.559 868.789 813.657 877.631C822.801 885.638 835.613 889.08 847.64 887.325C859.667 885.57 870.773 878.801 878.336 869.287C882.092 864.562 885.001 859.218 887.504 853.726C899.692 826.988 902.377 796.366 897.108 767.458C896.03 761.544 894.566 755.537 891.179 750.57C882.913 738.447 865.055 736.113 851.487 741.699C837.919 747.285 827.843 758.892 819.047 770.636C815.307 775.629 813.971 780.521 811.69 786.103C809.408 791.689 805.942 796.363 804.12 802.24Z" fill="#D9B29F"/>
<path d="M834.851 802.127C828.565 809.186 822.406 818.202 812.979 818.892C806.958 819.332 801.082 815.892 797.535 811.007C793.988 806.122 792.52 799.988 792.217 793.959C791.586 781.378 795.896 768.581 804.16 759.074C812.424 749.567 824.576 743.496 837.153 742.794C844.957 742.359 852.766 743.91 860.194 746.346C872.54 750.394 884.417 757.233 891.885 767.865C902.06 782.353 902.573 801.702 898.736 818.985C894.9 836.268 887.214 852.439 882.089 869.385C879.975 876.376 878.286 883.531 875.318 890.204C868.927 904.578 856.342 916.226 841.29 920.798C826.239 925.37 808.972 922.537 796.596 912.828C787.796 905.925 781.783 896.125 776.509 886.262C774.578 882.65 772.698 878.942 771.88 874.928C770.81 869.68 771.627 864.206 773.162 859.075C774.597 854.277 776.715 849.579 780.125 845.911C785.469 840.162 793.914 837.486 801.594 839.109C809.274 840.731 815.915 846.593 818.478 854.012C820.472 859.783 820.123 866.241 822.652 871.799C825.181 877.357 832.836 881.451 837.337 877.325C841.638 873.383 839.171 866.022 841.608 860.721C845.491 852.275 858.266 853.827 865.726 848.282C870.956 844.395 872.875 836.652 870.066 830.772C867.493 825.387 861.502 821.407 861.35 815.44C861.134 806.948 872.765 802.302 873.771 793.868C874.802 785.217 864.835 782.441 858.41 784.631C849.56 787.647 840.951 795.278 834.851 802.127Z" fill="#C19883"/>
<path d="M235.961 406.56C221.729 408.552 207.402 411.605 194.761 418.442C182.12 425.279 171.228 436.349 167.263 450.162C163.673 462.671 166.177 476.653 173.359 487.505C180.541 498.357 192.161 506.033 204.827 509.025C211.116 510.51 217.62 510.893 224.082 510.816C255.543 510.438 286.436 499.082 312.043 480.801C317.282 477.061 322.434 472.904 325.703 467.359C333.682 453.825 327.803 435.458 316.207 424.859C304.611 414.259 288.773 409.787 273.385 406.617C266.843 405.269 261.494 406.205 255.046 406.539C248.593 406.875 242.486 405.647 235.961 406.56Z" fill="#D9B29F"/>
<path d="M250.077 436.283C240.373 433.41 228.83 431.552 223.865 422.733C220.694 417.1 221.349 409.839 224.465 404.176C227.582 398.513 232.855 394.295 238.559 391.254C250.46 384.908 264.824 383.252 277.802 386.925C290.78 390.598 302.2 399.606 308.613 411.471C312.592 418.834 314.648 427.107 315.674 435.413C317.379 449.22 316.167 463.844 309.269 475.925C299.87 492.387 281.356 501.703 262.863 505.863C244.369 510.023 225.199 509.947 206.444 512.706C198.707 513.844 191.005 515.469 183.186 515.635C166.347 515.994 149.325 509.11 138.035 496.611C126.745 484.112 121.62 466.092 125.386 449.675C128.064 438.003 134.818 427.71 141.97 418.105C144.589 414.587 147.325 411.076 150.841 408.455C155.438 405.027 161.114 403.323 166.785 402.471C172.088 401.675 177.605 401.585 182.713 403.217C190.719 405.775 197.16 412.737 199.089 420.918C201.018 429.098 198.365 438.205 192.345 444.07C187.662 448.632 181.246 451.238 177.014 456.221C172.782 461.204 172.304 470.487 178.353 472.968C184.133 475.339 190.14 469.593 196.387 469.538C206.34 469.451 210.658 482.535 219.432 487.236C225.582 490.531 233.959 488.862 238.375 483.46C242.42 478.512 243.545 470.894 249.257 468.027C257.386 463.947 267.189 473.099 275.819 470.229C284.671 467.285 282.817 456.363 277.766 451.136C270.811 443.935 259.493 439.071 250.077 436.283Z" fill="#C19883"/>
<path d="M297.202 108.361C298.188 115.32 300.264 122.072 302.333 128.79C305.531 139.176 309.304 150.364 318.307 156.451C323.446 159.925 329.699 161.278 335.816 162.306C340.607 163.112 345.573 163.756 350.276 162.54C355.835 161.103 360.424 157.222 364.403 153.082C386.62 129.969 395.223 96.2212 393.378 64.2162C392.998 57.6302 392.175 50.9202 389.293 44.9862C383.633 33.3312 370.377 26.4502 357.42 26.4482C344.463 26.4452 332.029 32.5432 322.416 41.2302C304.585 57.3442 293.813 84.4382 297.202 108.361Z" fill="#D9B29F"/>
<path d="M312.653 22.2722C302.699 24.6962 294.908 32.5592 289.393 41.1932C283.155 50.9582 279.075 62.6612 280.869 74.1092C282.662 85.5572 291.447 96.3252 302.931 97.8742C306.436 98.3472 310.008 97.9792 313.478 97.2932C321.447 95.7172 329.368 92.2312 334.455 85.8982C336.264 83.6462 337.696 81.0642 339.849 79.1382C342.002 77.2132 345.216 76.0562 347.805 77.3372C350.997 78.9152 351.615 83.0762 352.356 86.5592C353.581 92.3182 356.23 97.7682 360.001 102.289C361.233 103.765 362.681 105.533 362.139 107.378C361.973 107.943 361.629 108.437 361.291 108.92C356.228 116.147 351.166 123.374 346.103 130.6C344.82 132.431 343.242 134.439 341.012 134.603C338.525 134.787 336.591 132.621 334.856 130.829C327.585 123.32 317.292 119.712 307.395 116.349C305.112 115.573 302.724 114.786 300.336 115.125C296.372 115.688 293.364 119.408 292.711 123.358C292.059 127.308 293.377 131.357 295.377 134.825C301.757 145.888 314.399 151.782 326.783 154.898C328.682 155.376 330.655 155.833 332.216 157.015C334.425 158.688 335.402 161.478 336.891 163.814C341.448 170.962 351.11 173.613 359.394 171.815C367.678 170.017 374.72 164.569 380.572 158.436C386.134 152.607 391.106 145.467 391.34 137.413C391.43 134.329 390.815 131.224 391.264 128.171C391.796 124.553 393.766 121.338 395.422 118.077C407.44 94.4042 402.547 63.2752 383.845 44.4312C376.943 37.4762 367.287 31.9232 357.698 33.9402C353.953 34.7282 350.489 36.6242 346.706 37.2052C337.896 38.5582 337.871 31.3162 332.685 26.8232C327.358 22.2102 319.435 20.6202 312.653 22.2722Z" fill="#C19883"/>
<path d="M76.444 289.247C75.483 294.039 75.539 298.974 74.906 303.821C74.034 310.498 71.851 317.169 72.854 323.827C73.653 329.131 76.414 333.916 79.3 338.438C83.288 344.685 87.859 350.929 94.402 354.41C105.036 360.069 118.003 357.146 129.65 354.072C133.346 353.097 137.074 352.107 140.474 350.362C154.036 343.405 159.142 325.532 155.469 310.738C151.796 295.944 141.291 283.83 130.066 273.518C126.289 270.049 122.232 266.62 117.319 265.151C110.715 263.176 103.62 265.027 97.08 267.201C87.582 270.361 78.449 279.254 76.444 289.247Z" fill="#D9B29F"/>
<path d="M99.042 300.955C109.096 300.768 118.795 294.49 123.082 285.394C125.37 280.539 126.171 275.083 126.064 269.717C125.977 265.352 125.294 260.956 123.595 256.934C121.433 251.816 117.699 247.48 113.427 243.929C106.187 237.911 93.008 232.947 84.216 238.368C74.817 244.164 71.262 256.653 70.862 267.019C70.607 273.624 71.403 280.426 74.44 286.296C79.062 295.227 88.988 301.142 99.042 300.955Z" fill="#C19883"/>
<path d="M166.949 328.077C163.157 320.328 154.343 314.973 145.827 316.353C138.102 317.605 132.111 323.682 127.38 329.916C124.535 333.665 121.93 337.628 118.787 341.143C115.057 345.315 113.005 348.399 109.428 343.605C103.466 335.616 100.772 326.955 92.272 320.748C83.118 314.064 69.311 312.448 60.846 319.986C53.505 326.523 52.314 337.964 55.413 347.292C58.512 356.62 65.092 364.322 71.603 371.686C74.254 374.684 76.968 377.712 80.358 379.84C89.254 385.427 102.236 383.101 108.638 374.772C110.625 372.188 112.695 368.772 115.949 368.946C117.107 369.008 118.175 369.554 119.225 370.046C123 371.818 127.033 373.037 131.158 373.651C134.103 374.09 137.128 374.218 140.042 373.612C142.674 373.065 145.15 371.933 147.515 370.653C155.102 366.548 161.93 360.651 165.916 353.001C169.902 345.349 170.741 335.825 166.949 328.077Z" fill="#C19883"/>
<path d="M169.855 556.3C161.298 559.912 155.607 568.203 151.946 576.739C148.285 585.275 146.163 594.439 142.08 602.781C137.363 612.417 129.867 621.8 131.092 632.458C132.118 641.386 139.296 648.551 147.322 652.594C155.348 656.638 164.335 658.256 172.939 660.852C178.288 662.466 183.647 664.492 189.234 664.46C194.52 664.43 199.62 662.55 204.415 660.325C218.057 653.997 230.797 643.962 236.27 629.955C242.203 614.77 238.461 596.863 228.962 583.613C219.463 570.363 204.87 561.414 189.434 556.166C184.415 554.46 174.812 554.207 169.855 556.3Z" fill="#D9B29F"/>
<path d="M136.53 564.073C136.097 562.163 134.697 560.637 133.29 559.276C131.768 557.803 130.129 556.377 128.157 555.601C116.778 551.121 109.521 568.268 111.782 576.948C112.509 579.738 114.088 582.534 116.743 583.658C118.131 584.245 119.695 584.32 121.184 584.094C124.493 583.592 127.463 581.662 129.733 579.203C132.003 576.744 133.64 573.773 135.089 570.757C136.095 568.661 137.043 566.34 136.53 564.073Z" fill="#C19883"/>
<path d="M216.326 622.973C210.224 619.367 202.558 618.882 195.761 620.892C189.868 622.635 184.523 626.127 178.467 627.17C153.679 631.438 171.893 603.694 170.191 593.553C169.228 587.818 163.437 583.633 157.623 583.517C151.809 583.401 146.297 586.765 142.77 591.389C139.243 596.013 137.481 601.76 136.566 607.503C134.364 621.322 137.108 636.427 146.327 646.954C152.069 653.51 160.348 658.582 162.608 666.999C163.549 670.506 163.335 674.356 165.002 677.582C168.355 684.069 177.155 684.851 184.458 684.785C192.773 684.709 201.798 684.389 208.239 679.128C214.64 673.9 216.757 665.23 220.13 657.685C222.625 652.104 226.035 646.669 226.328 640.563C226.666 633.484 222.428 626.579 216.326 622.973Z" fill="#C19883"/>
<path d="M240.668 571.75C237.09 567.002 232.111 563.518 227.047 560.404C218.877 555.38 210.25 551.1 201.305 547.634C195.225 545.278 184.743 545.19 178.66 547.151C174.002 548.653 169.783 552.15 168.424 556.852C166.025 565.154 173.482 573.629 181.835 575.847C187.437 577.335 193.485 576.895 198.909 578.938C203.592 580.702 207.395 584.157 211.343 587.231C215.588 590.536 220.12 593.471 224.873 595.992C227.064 597.154 229.363 598.247 231.832 598.487C237.749 599.064 243.329 594.249 244.8 588.489C246.271 582.729 244.246 576.498 240.668 571.75Z" fill="#C19883"/>
<path d="M683.506 463.928C683.073 462.018 681.673 460.492 680.266 459.131C678.744 457.658 677.105 456.232 675.133 455.456C663.754 450.976 656.497 468.123 658.758 476.803C659.485 479.593 661.064 482.389 663.719 483.513C665.107 484.1 666.671 484.175 668.16 483.949C671.469 483.447 674.439 481.517 676.709 479.058C678.979 476.599 680.616 473.628 682.065 470.611C683.071 468.515 684.02 466.194 683.506 463.928Z" fill="#C19883"/>
<path d="M938.955 310.391C938.522 308.481 937.122 306.955 935.715 305.594C934.193 304.121 932.554 302.695 930.582 301.919C919.203 297.439 911.946 314.586 914.207 323.266C914.934 326.056 916.513 328.852 919.168 329.976C920.556 330.563 922.12 330.638 923.609 330.412C926.918 329.91 929.888 327.98 932.158 325.521C934.428 323.062 936.065 320.091 937.514 317.074C938.52 314.979 939.469 312.658 938.955 310.391Z" fill="#C19883"/>
<path d="M166.14 868.753C165.707 866.843 164.307 865.317 162.9 863.956C161.378 862.483 159.739 861.057 157.767 860.281C146.388 855.801 139.131 872.948 141.392 881.628C142.119 884.417 143.698 887.214 146.353 888.338C147.741 888.925 149.305 889 150.794 888.774C154.103 888.272 157.073 886.342 159.343 883.883C161.613 881.424 163.25 878.453 164.699 875.437C165.705 873.341 166.654 871.02 166.14 868.753Z" fill="#C19883"/>
<path d="M504.35 810.738C503.917 808.828 502.517 807.302 501.11 805.941C499.588 804.468 497.949 803.042 495.977 802.266C484.598 797.786 477.341 814.933 479.602 823.613C480.329 826.403 481.908 829.199 484.563 830.323C485.95 830.91 487.515 830.985 489.004 830.759C492.313 830.257 495.283 828.327 497.553 825.868C499.823 823.409 501.46 820.438 502.909 817.421C503.916 815.325 504.864 813.005 504.35 810.738Z" fill="#C19883"/>
<path d="M670.58 907.835C670.605 898.547 665.204 890.065 658.782 883.355C652.36 876.645 644.758 871.106 638.68 864.083C631.659 855.971 625.959 845.4 615.672 842.355C607.054 839.804 597.652 843.606 590.79 849.409C583.927 855.212 578.921 862.849 573.164 869.75C569.585 874.04 565.623 878.179 563.466 883.333C561.425 888.209 561.159 893.638 561.329 898.921C561.813 913.951 566.061 929.603 576.808 940.122C588.459 951.525 606.402 955.091 622.313 951.536C638.224 947.981 652.171 938.055 663.041 925.905C666.575 921.954 670.566 913.215 670.58 907.835Z" fill="#D9B29F"/>
<path d="M676.471 874.126C678.398 874.475 680.35 873.784 682.154 873.022C684.105 872.198 686.059 871.247 687.545 869.737C696.121 861.019 683.183 847.629 674.311 846.313C671.46 845.89 668.268 846.249 666.195 848.252C665.111 849.299 664.431 850.709 664.056 852.168C663.223 855.409 663.836 858.898 665.211 861.949C666.586 865 668.679 867.669 670.887 870.183C672.419 871.93 674.184 873.711 676.471 874.126Z" fill="#C19883"/>
<path d="M591.037 924.502C596.744 920.298 600.191 913.434 601.001 906.392C601.703 900.287 600.582 894.001 601.993 888.021C607.767 863.54 626.169 891.16 636.167 893.563C641.821 894.922 647.939 891.231 650.321 885.926C652.703 880.621 651.765 874.232 648.891 869.177C646.016 864.122 641.417 860.25 636.491 857.161C624.636 849.726 609.662 846.338 596.367 850.702C588.087 853.419 580.178 859.053 571.549 857.838C567.953 857.331 564.495 855.627 560.873 855.899C553.591 856.446 549.427 864.238 546.63 870.983C543.445 878.665 540.208 887.095 542.527 895.08C544.833 903.017 551.982 908.358 557.605 914.415C561.764 918.895 565.431 924.16 570.935 926.82C577.317 929.904 585.33 928.706 591.037 924.502Z" fill="#C19883"/>
<path d="M628.646 966.951C634.415 965.517 639.571 962.299 644.419 958.857C652.24 953.305 659.555 947.042 666.246 940.167C670.794 935.494 674.977 925.883 675.554 919.517C675.995 914.643 674.429 909.391 670.634 906.301C663.933 900.844 653.215 904.389 647.905 911.207C644.343 915.78 642.381 921.517 638.378 925.709C634.922 929.328 630.254 931.475 625.879 933.905C621.176 936.517 616.701 939.54 612.521 942.926C610.594 944.488 608.689 946.175 607.501 948.353C604.654 953.572 606.901 960.592 611.626 964.2C616.35 967.81 622.876 968.386 628.646 966.951Z" fill="#C19883"/>
<path d="M301.258 285.955C298.618 302.156 306.748 319.867 321.298 327.466C336.524 335.418 356.563 331.275 368.749 319.167C380.934 307.059 385.361 288.301 381.782 271.5C379.827 262.323 375.15 253.077 366.836 248.728C355.132 242.606 338.15 246.825 326.978 252.686C313.999 259.495 303.672 271.142 301.258 285.955Z" fill="#D9B29F"/>
<path d="M343.055 276.892C350.932 273.619 354.532 264.682 357.335 256.626C358.291 253.877 359.261 250.985 358.783 248.114C357.059 237.772 340.579 230.375 331.888 235.877C321.197 242.645 315.079 257.698 321.989 269.201C326.183 276.185 335.532 280.017 343.055 276.892Z" fill="#C19883"/>
<path d="M394.067 280.093C392.593 273.8 389.371 267.742 384.217 263.841C380.521 261.044 375.523 259.462 371.185 261.094C367.214 262.589 364.61 266.398 362.765 270.219C359.141 277.723 357.84 285.368 358.241 293.565C358.58 300.487 355.11 306.25 348.139 308.798C347.17 309.152 346.126 309.421 345.113 309.226C343.864 308.986 342.86 308.088 341.925 307.227C337.515 303.163 333.016 298.985 330.258 293.66C328.965 291.163 328.052 288.413 326.203 286.294C321.977 281.454 313.965 281.61 308.571 285.102C303.178 288.594 299.915 294.542 297.418 300.462C294.303 307.846 292.011 316.065 294.018 323.824C296.294 332.626 303.594 339.108 310.732 344.739C320.216 352.22 330.705 359.462 342.727 360.637C357.605 362.091 372.248 353.551 381.054 341.472C389.86 329.393 393.559 314.279 394.847 299.386C395.405 292.947 395.541 286.387 394.067 280.093Z" fill="#C19883"/>
<path d="M574.83 317.461C571.266 312.966 566.567 309.509 561.721 306.439C553.22 301.053 544.076 296.681 534.546 293.448C528.455 291.381 522.19 289.771 516.312 287.158C512.058 285.267 508.033 282.862 503.677 281.217C499.322 279.571 494.467 278.718 490.01 280.065C481.074 282.765 476.979 292.771 470.677 299.658C463.475 307.529 452.178 312.503 449.149 322.732C448.148 326.112 448.212 329.709 448.442 333.226C448.977 341.401 450.43 349.694 454.385 356.869C460.905 368.697 473.244 375.964 482.391 385.901C487.976 391.969 492.592 399.246 499.741 403.357C508.934 408.643 520.594 407.558 530.515 403.814C544.611 398.493 556.486 388.316 565.845 376.508C578.157 360.973 588.885 335.187 574.83 317.461Z" fill="#D9B29F"/>
<path d="M561.592 310.898C551.196 314.993 542.383 323.968 543.183 335.851C543.901 346.508 545.783 355.76 539.301 365.336C535.409 371.085 529.676 375.359 525.532 380.929C517.951 391.121 516.53 405.55 521.975 417.025C524.49 422.324 528.626 427.165 534.19 429.019C537.132 429.999 540.297 430.095 543.393 429.921C554.837 429.28 566.049 424.993 575.002 417.836C583.954 410.679 590.604 400.685 593.748 389.663C596.489 380.052 596.593 369.905 598.298 360.058C599.517 353.018 601.562 346.069 601.695 338.925C601.811 332.66 600.393 326.308 597.183 320.926C593.974 315.544 588.914 311.195 582.946 309.286C576.012 307.068 568.367 308.229 561.592 310.898Z" fill="#C19883"/>
<path d="M447.289 392.013C451.84 395.019 457.232 396.433 462.531 397.726C466.466 398.686 470.489 399.613 474.527 399.288C486.073 398.359 489.518 387.845 490.657 377.918C491.224 372.974 491.64 367.451 488.563 363.54C485.985 360.262 481.662 359.049 477.963 357.124C473.239 354.665 469.267 350.785 466.697 346.121C464.102 341.412 462.952 336.033 460.547 331.224C458.141 326.415 453.856 321.927 448.483 321.707C444.573 321.547 440.901 323.704 438.076 326.411C429.776 334.365 427.343 346.713 427.495 358.208C427.542 361.798 427.808 365.434 428.973 368.829C430.453 373.143 433.297 376.833 436.093 380.437C439.397 384.698 442.788 389.039 447.289 392.013Z" fill="#C19883"/>
<path d="M503.851 322.301C507.478 316.808 511.755 311.361 517.765 308.675C524.216 305.791 531.8 306.482 538.316 303.749C544.849 301.009 549.764 294.724 550.847 287.723C551.931 280.722 549.146 273.245 543.746 268.658C537.757 263.57 529.513 262.288 521.724 261.245C516.698 260.572 511.616 259.916 506.569 260.41C493.661 261.674 482.59 270.299 474.158 280.154C469.972 285.047 466.149 290.507 464.706 296.783C462.923 304.54 465.023 312.827 469.1 319.663C472.145 324.768 476.497 329.368 482.113 331.318C490.286 334.155 499.382 329.07 503.851 322.301Z" fill="#C19883"/>
<path d="M530.815 747.431C533.955 742.63 535.753 737.08 537.136 731.513C539.564 721.746 540.826 711.69 540.886 701.626C540.925 695.194 540.475 688.741 541.099 682.339C541.551 677.705 542.562 673.127 542.749 668.475C542.936 663.823 542.213 658.947 539.528 655.143C534.146 647.516 523.358 646.788 514.835 642.983C505.093 638.634 496.808 629.484 486.146 629.839C482.623 629.956 479.23 631.152 475.965 632.48C468.376 635.568 460.966 639.564 455.406 645.581C446.24 655.501 443.24 669.503 436.698 681.319C432.703 688.533 427.255 695.211 425.611 703.292C423.497 713.683 428.206 724.405 434.891 732.637C444.389 744.333 457.794 752.388 471.952 757.542C490.577 764.321 518.431 766.361 530.815 747.431Z" fill="#D9B29F"/>
<path d="M532.865 732.798C525.698 724.226 514.4 718.696 503.377 723.206C493.492 727.251 485.306 731.957 474.174 728.829C467.49 726.951 461.626 722.859 455.032 720.686C442.969 716.71 428.828 719.915 419.658 728.704C415.424 732.763 412.136 738.215 412.132 744.08C412.13 747.181 413.039 750.214 414.18 753.097C418.4 763.754 426.007 773.04 435.624 779.276C445.241 785.512 456.823 788.667 468.274 788.171C478.259 787.739 487.919 784.634 497.802 783.144C504.867 782.078 512.107 781.826 518.926 779.697C524.907 777.83 530.487 774.479 534.581 769.735C538.674 764.991 541.204 758.817 541.132 752.552C541.049 745.271 537.535 738.384 532.865 732.798Z" fill="#C19883"/>
<path d="M419.818 649.94C418.402 655.207 418.763 660.77 419.208 666.206C419.539 670.243 419.929 674.353 421.512 678.082C426.038 688.745 437.101 688.695 446.881 686.642C451.752 685.62 457.123 684.271 459.864 680.116C462.16 676.635 461.947 672.15 462.606 668.032C463.448 662.774 465.876 657.78 469.49 653.869C473.14 649.92 477.88 647.131 481.685 643.331C485.489 639.53 488.395 634.047 486.907 628.88C485.825 625.12 482.619 622.316 479.158 620.49C468.991 615.125 456.506 616.713 445.647 620.485C442.256 621.663 438.89 623.063 436.035 625.24C432.409 628.006 429.805 631.869 427.268 635.66C424.268 640.143 421.219 644.731 419.818 649.94Z" fill="#C19883"/>
<path d="M503.819 681.608C510.176 683.316 516.694 685.655 521.141 690.509C525.914 695.72 527.652 703.135 532.302 708.455C536.964 713.79 544.479 716.469 551.465 715.287C558.45 714.105 564.666 709.103 567.314 702.532C570.251 695.243 568.866 687.016 567.397 679.296C566.449 674.314 565.468 669.286 563.406 664.653C558.132 652.804 546.454 645.021 534.442 640.131C528.478 637.703 522.09 635.799 515.68 636.411C507.757 637.167 500.556 641.776 495.356 647.802C491.473 652.303 488.482 657.884 488.404 663.828C488.289 672.478 495.985 679.503 503.819 681.608Z" fill="#C19883"/>
<path d="M41.93 597.69C40.42 601.2 37.47 603.87 34.46 606.25C34.44 606.26 34.41 606.28 34.39 606.3C27.11 612.02 19.87 618.29 10.79 620.7C7.27 621.63 3.64 622.17 0 622.32V552.88C4.48 553.1 8.95 553.31 13.37 554.02C19.68 555.05 25.99 557.24 30.72 561.53C36.24 566.55 39.03 573.85 41.19 580.99C42.83 586.44 44.18 592.46 41.93 597.69Z" fill="#D9B29F"/>
<path d="M73.57 659.65C71.46 671.52 50.8 677.7 40.71 679.14C26.93 681.1 13.6 675.38 0 671.69V605.69C9.49 605.83 19.31 603.79 28.79 605.07C30.71 605.33 32.6 605.72 34.46 606.25C43.43 608.76 51.57 614.18 57.91 621.07C66.16 630.05 75.85 646.79 73.57 659.65Z" fill="#C19883"/>
<path d="M807.36 69.7C806.34 72.48 804.94 75.23 802.61 77.05C799.46 79.49 795.2 79.79 791.22 79.05C790.52 78.92 789.83 78.76 789.16 78.57C784.65 77.31 780.46 75.04 775.91 73.93C771.03 72.73 765.91 72.91 760.97 71.94C760.35 71.82 759.73 71.68 759.12 71.52C751.01 69.44 743.81 64.31 738.4 57.88C732.59 50.96 728.7 42.6 725.9 34.01C723.11 25.47 721.31 16.44 722.3 7.51C722.58 4.97 723.11 2.44 723.89 0H786.07C787.64 2.66 788.99 5.47 790.14 8.34C790.21 8.52 790.28 8.7 790.35 8.87C793.36 16.55 794.04 22.27 799.49 28.63C808.99 39.71 812.44 55.89 807.36 69.7Z" fill="#D9B29F"/>
<path d="M781.473 55.7638C784.798 60.1998 789.043 64.2508 790.44 69.6158C791.571 73.9638 790.659 78.6468 791.797 82.9918C792.802 86.8278 795.367 90.1298 798.494 92.5688C804.036 96.8908 811.497 98.6508 818.387 97.2608C826.817 95.5598 834.049 90.1458 834.073 81.4508C834.102 70.9488 834.151 60.5188 833.413 50.0308C832.844 41.9388 831.849 33.5218 827.421 26.7248C824.274 21.8948 819.622 18.2578 814.885 14.9728C810.1 11.6538 804.92 8.5158 799.136 7.8448C788.396 6.5988 777.957 14.8648 774.837 25.2168C771.717 35.5688 774.988 47.1118 781.473 55.7638Z" fill="#C19883"/>
<path d="M759.12 71.52C754.74 81.31 744.82 88.23 733.46 83.76C727.74 81.51 723.31 76.53 721.11 70.8C719.67 67.08 719.05 62.96 716.68 59.76C713.99 56.13 709.56 54.35 705.75 51.94C693.18 43.96 687.02 27.66 689.78 13.03C690.65 8.43 692.31 4.05 694.61 0H747.12C747.09 0.59 747.04 1.17 746.99 1.75C746.24 9.63 744.17 17.64 745.97 25.35C748.79 37.5 760.72 46.58 761.48 59.04C761.74 63.3 760.87 67.63 759.12 71.52Z" fill="#C19883"/>
<path d="M445.373 870.424C440.985 859.786 434.057 849.881 424.288 843.8C414.519 837.719 401.669 835.98 391.344 841.059C386.942 843.224 383.181 846.478 379.534 849.758C370.974 857.454 362.672 865.569 356.133 875.042C349.594 884.515 344.858 895.48 344.107 906.966C343.264 919.865 347.669 933.031 356.105 942.825C364.541 952.619 376.908 958.927 389.79 960.005C394.581 960.406 399.508 960.093 403.996 958.37C409.378 956.303 413.8 952.356 417.92 948.324C429.007 937.477 438.548 925.177 443.144 910.187C445.23 903.382 449.6 900.497 449.888 892.588C450.164 884.992 448.253 877.406 445.373 870.424Z" fill="#D9B29F"/>
<path d="M382.951 896.621C379.183 902.256 380.121 910.254 384.268 915.616C388.415 920.978 395.215 923.855 401.977 924.336C410.116 924.915 417.465 921.456 425.425 921.348C434.76 921.221 444.13 920.426 453.394 919.309C459.49 918.573 465.976 917.457 470.443 913.243C477.655 906.439 476.263 893.747 469.566 886.436C462.869 879.125 452.53 876.297 442.639 875.611C423.807 874.304 404.576 879.735 389.209 890.7C386.858 892.377 384.556 894.22 382.951 896.621Z" fill="#C19883"/>
<path d="M350.462 955.797C363.434 955.433 359.03 936.713 357.417 928.823C356.135 922.551 353.731 916.26 354.737 909.938C355.964 902.223 362.078 896.148 368.737 892.064C375.397 887.979 382.863 885.31 389.402 881.035C395.941 876.76 401.739 870.259 402.296 862.466C402.765 855.898 399.355 849.508 394.569 844.985C389.783 840.462 383.735 837.534 377.684 834.935C373.501 833.138 369.196 831.446 364.666 830.988C360.136 830.53 355.296 831.44 351.804 834.362C348.83 836.852 347.115 840.522 345.848 844.188C344.372 848.459 343.378 852.896 342.891 857.388C342.543 860.593 342.448 863.852 341.569 866.954C340.249 871.614 337.265 875.59 334.968 879.855C325.683 897.099 328.031 918.28 333.467 937.096C334.73 941.466 336.19 945.884 338.927 949.518C341.664 953.151 345.914 955.924 350.462 955.797Z" fill="#C19883"/>
<path d="M660.806 159.719C656.269 149.859 650.944 140.161 643.25 132.506C635.556 124.851 625.18 119.381 614.327 119.519C604.499 119.643 594.932 124.497 588.645 132.052C582.358 139.607 579.335 149.681 579.926 159.492C580.22 164.364 581.358 169.151 582.82 173.808C589.937 196.48 604.87 216.352 623.663 230.896C627.507 233.871 631.635 236.694 636.356 237.852C647.88 240.678 659.885 232.431 665.028 221.739C670.171 211.046 669.96 198.619 668.906 186.8C668.458 181.776 666.618 178.111 664.973 173.52C663.326 168.924 662.885 164.24 660.806 159.719Z" fill="#D9B29F"/>
<path d="M642.379 176.395C642.346 168.752 641.178 159.999 646.477 154.49C649.861 150.971 655.255 149.865 660.029 150.887C664.803 151.909 669 154.805 672.441 158.269C679.62 165.496 683.942 175.524 684.109 185.709C684.276 195.894 680.245 206.113 673.059 213.332C668.599 217.812 663.063 221.098 657.279 223.647C647.664 227.884 636.823 230.188 626.585 227.827C612.635 224.61 601.869 213.247 594.838 200.776C587.806 188.306 583.691 174.424 577.616 161.46C575.11 156.112 572.259 150.895 570.438 145.276C566.515 133.175 567.791 119.367 574.375 108.482C580.959 97.598 592.877 89.971 605.57 89.123C614.594 88.52 623.508 91.166 632.01 94.249C635.124 95.378 638.259 96.593 640.919 98.566C644.399 101.145 646.865 104.879 648.715 108.796C650.445 112.458 651.709 116.429 651.64 120.478C651.532 126.825 647.898 132.998 642.401 136.172C636.904 139.346 629.741 139.409 624.19 136.331C619.872 133.937 616.591 129.863 612.067 127.887C607.543 125.911 600.724 127.584 600.246 132.499C599.789 137.195 605.251 140.289 606.65 144.796C608.878 151.976 600.355 157.945 598.863 165.313C597.818 170.478 600.847 176.173 605.715 178.192C610.173 180.041 615.928 179.198 619.244 182.705C623.963 187.697 619.477 196.777 623.43 202.395C627.485 208.157 634.981 204.44 637.663 199.65C641.355 193.055 642.411 183.811 642.379 176.395Z" fill="#C19883"/>
<path d="M162.978 732.607C157.594 728.089 151.537 724.454 145.509 720.839C136.189 715.25 125.905 709.448 115.14 710.937C108.995 711.787 103.44 714.959 98.202 718.282C94.1 720.884 89.975 723.724 87.288 727.771C84.113 732.555 83.293 738.509 83.099 744.247C82.017 776.288 98.17 807.142 120.931 829.719C125.615 834.365 130.711 838.807 136.821 841.295C148.821 846.183 163.28 842.443 172.921 833.786C182.562 825.129 187.737 812.284 189.083 799.397C191.579 775.493 181.486 748.139 162.978 732.607Z" fill="#D9B29F"/>
<path d="M209.015 806.976C214.8 798.52 215.341 787.465 213.674 777.356C211.789 765.923 207.003 754.491 198.018 747.172C189.033 739.854 175.302 737.715 165.724 744.237C162.8 746.228 160.389 748.888 158.267 751.718C153.392 758.216 149.829 766.102 150.276 774.213C150.435 777.097 151.095 779.975 150.781 782.846C150.466 785.717 148.848 788.725 146.067 789.503C142.638 790.462 139.397 787.78 136.518 785.685C131.758 782.22 126.145 779.935 120.319 779.092C118.416 778.817 116.157 778.47 115.328 776.735C115.074 776.203 114.999 775.607 114.928 775.022C113.865 766.263 112.801 757.504 111.738 748.744C111.469 746.524 111.301 743.976 112.85 742.364C114.578 740.565 117.464 740.884 119.952 741.057C130.379 741.784 140.448 737.589 150.057 733.477C152.274 732.528 154.577 731.518 156.126 729.67C158.698 726.602 158.451 721.824 156.296 718.45C154.141 715.076 150.455 712.944 146.65 711.701C134.511 707.735 121.167 711.798 109.872 717.756C108.14 718.669 106.367 719.648 104.416 719.812C101.655 720.044 99.063 718.621 96.394 717.878C88.228 715.606 79.268 720.091 74.307 726.964C69.346 733.837 67.748 742.596 67.493 751.069C67.251 759.123 68.323 767.756 73.531 773.904C75.525 776.258 78.058 778.157 79.764 780.728C81.786 783.775 82.469 787.483 83.417 791.016C90.297 816.658 114.739 836.545 141.244 838.066C151.027 838.627 161.921 836.306 167.706 828.397C169.966 825.308 171.276 821.583 173.701 818.622C179.35 811.728 184.209 817.099 191.069 816.976C198.116 816.849 205.073 812.737 209.015 806.976Z" fill="#C19883"/>
<path d="M699.016 710.218C693.632 705.7 687.575 702.065 681.547 698.45C672.227 692.861 661.943 687.059 651.178 688.548C645.033 689.398 639.478 692.57 634.24 695.893C630.138 698.495 626.013 701.334 623.326 705.382C620.151 710.166 619.331 716.12 619.137 721.858C618.055 753.899 634.208 784.753 656.969 807.33C661.653 811.976 666.749 816.418 672.859 818.906C684.859 823.794 699.318 820.054 708.958 811.397C718.598 802.74 723.774 789.895 725.12 777.008C727.617 753.105 717.524 725.751 699.016 710.218Z" fill="#D9B29F"/>
<path d="M745.052 784.588C750.837 776.132 751.378 765.077 749.711 754.968C747.826 743.535 743.04 732.102 734.055 724.784C725.07 717.466 711.339 715.327 701.761 721.849C698.837 723.84 696.426 726.5 694.304 729.33C689.429 735.828 685.866 743.714 686.313 751.825C686.472 754.709 687.132 757.587 686.818 760.458C686.503 763.329 684.885 766.337 682.104 767.115C678.675 768.074 675.434 765.392 672.556 763.297C667.796 759.832 662.183 757.547 656.356 756.704C654.453 756.429 652.194 756.082 651.365 754.347C651.111 753.815 651.037 753.219 650.966 752.634C649.903 743.875 648.839 735.116 647.776 726.356C647.507 724.136 647.339 721.588 648.888 719.976C650.616 718.177 653.502 718.496 655.99 718.669C666.417 719.396 676.486 715.201 686.095 711.089C688.312 710.14 690.615 709.13 692.164 707.282C694.736 704.214 694.489 699.436 692.334 696.062C690.18 692.688 686.493 690.556 682.688 689.313C670.549 685.347 657.205 689.41 645.91 695.368C644.178 696.281 642.405 697.26 640.454 697.424C637.693 697.656 635.102 696.233 632.432 695.49C624.266 693.218 615.306 697.703 610.345 704.576C605.384 711.449 603.786 720.208 603.531 728.681C603.289 736.734 604.361 745.368 609.569 751.516C611.563 753.87 614.096 755.769 615.802 758.34C617.824 761.387 618.507 765.095 619.454 768.628C626.334 794.27 650.776 814.157 677.281 815.678C687.064 816.239 697.958 813.918 703.743 806.009C706.003 802.92 707.313 799.195 709.738 796.234C715.387 789.34 720.246 794.711 727.106 794.588C734.154 794.461 741.111 790.349 745.052 784.588Z" fill="#C19883"/>
<path d="M731.858 578.207C725.27 580.656 719.117 584.127 712.996 587.582C703.532 592.925 693.408 599 689.385 609.095C687.088 614.858 687.103 621.255 687.404 627.451C687.64 632.303 688.071 637.292 690.263 641.628C692.854 646.752 697.626 650.406 702.519 653.409C729.843 670.177 764.65 671.375 795.523 662.737C801.876 660.96 808.255 658.723 813.437 654.64C823.614 646.621 827.505 632.202 824.741 619.543C821.976 606.884 813.364 596.039 802.824 588.503C783.274 574.524 754.505 569.787 731.858 578.207Z" fill="#D9B29F"/>
<path d="M819.261 574.916C814.767 565.709 805.422 559.777 795.809 556.233C784.937 552.224 772.633 550.738 761.832 554.935C751.031 559.132 742.388 570.014 743.327 581.563C743.614 585.089 744.736 588.499 746.147 591.742C749.388 599.191 754.485 606.185 761.759 609.802C764.345 611.088 767.174 611.936 769.515 613.628C771.856 615.32 773.672 618.213 772.974 621.015C772.114 624.47 768.181 625.963 764.937 627.431C759.573 629.858 754.814 633.609 751.202 638.259C750.023 639.777 748.605 641.57 746.687 641.434C746.099 641.392 745.544 641.162 745 640.935C736.859 637.533 728.718 634.13 720.576 630.728C718.513 629.866 716.215 628.753 715.578 626.609C714.868 624.219 716.57 621.866 717.95 619.789C723.733 611.082 725.059 600.256 726.231 589.869C726.501 587.473 726.76 584.972 725.919 582.711C724.523 578.959 720.246 576.814 716.248 577.021C712.25 577.227 708.576 579.38 705.615 582.074C696.17 590.669 693.111 604.278 692.712 617.043C692.651 619 692.626 621.025 691.804 622.802C690.642 625.317 688.124 626.867 686.16 628.821C680.15 634.799 679.624 644.805 683.15 652.514C686.676 660.223 693.502 665.939 700.742 670.346C707.625 674.535 715.661 677.867 723.579 676.377C726.611 675.806 729.513 674.542 732.591 674.329C736.24 674.076 739.8 675.314 743.34 676.235C769.033 682.92 798.399 671.492 812.814 649.198C818.135 640.97 821.497 630.351 817.479 621.414C815.909 617.923 813.317 614.944 811.942 611.373C808.739 603.056 815.809 601.484 819.09 595.459C822.462 589.269 822.323 581.189 819.261 574.916Z" fill="#C19883"/>
<path d="M456.682 151.273C452.591 152.794 448.771 154.949 444.97 157.094C439.094 160.411 432.807 164.184 430.309 170.452C428.883 174.03 428.892 178.002 429.079 181.849C429.226 184.862 429.493 187.96 430.854 190.652C432.463 193.834 435.426 196.103 438.464 197.967C455.43 208.379 477.042 209.122 496.212 203.759C500.157 202.655 504.118 201.266 507.336 198.731C513.655 193.752 516.071 184.799 514.355 176.939C512.638 169.079 507.291 162.345 500.747 157.666C488.608 148.987 470.744 146.046 456.682 151.273Z" fill="#D9B29F"/>
<path d="M510.952 149.23C508.161 143.513 502.359 139.83 496.39 137.63C489.639 135.141 481.999 134.218 475.293 136.824C468.586 139.43 463.22 146.187 463.803 153.358C463.981 155.547 464.678 157.665 465.554 159.679C467.567 164.304 470.731 168.647 475.248 170.893C476.854 171.692 478.61 172.218 480.064 173.269C481.517 174.32 482.645 176.116 482.212 177.856C481.678 180.001 479.236 180.929 477.222 181.84C473.891 183.347 470.936 185.676 468.694 188.563C467.962 189.506 467.081 190.619 465.891 190.535C465.526 190.509 465.181 190.366 464.843 190.225C459.788 188.112 454.733 186 449.678 183.887C448.397 183.352 446.97 182.66 446.574 181.33C446.133 179.846 447.19 178.385 448.047 177.095C451.638 171.689 452.461 164.966 453.189 158.517C453.357 157.029 453.517 155.476 452.995 154.073C452.128 151.743 449.472 150.412 446.99 150.54C444.508 150.668 442.226 152.004 440.388 153.677C434.523 159.014 432.624 167.464 432.376 175.39C432.338 176.605 432.322 177.863 431.812 178.966C431.09 180.528 429.527 181.49 428.307 182.704C424.575 186.416 424.249 192.629 426.438 197.415C428.627 202.201 432.865 205.751 437.361 208.487C441.634 211.088 446.625 213.157 451.541 212.231C453.424 211.876 455.226 211.092 457.137 210.959C459.403 210.802 461.614 211.571 463.811 212.143C479.764 216.294 497.998 209.198 506.949 195.355C510.253 190.246 512.341 183.652 509.846 178.103C508.872 175.936 507.262 174.086 506.408 171.868C504.419 166.704 508.809 165.728 510.846 161.986C512.94 158.143 512.854 153.126 510.952 149.23Z" fill="#C19883"/>
<path d="M699.318 357.085C698.891 352.742 697.782 348.498 696.676 344.276C694.967 337.748 692.923 330.707 687.499 326.693C684.403 324.402 680.56 323.397 676.792 322.597C673.841 321.97 670.778 321.439 667.828 322.068C664.341 322.812 661.392 325.098 658.814 327.561C644.419 341.31 638.188 362.018 638.485 381.922C638.546 386.018 638.879 390.202 640.509 393.96C643.712 401.34 651.753 405.96 659.79 406.305C667.828 406.65 675.703 403.197 681.897 398.062C693.386 388.538 700.786 372.016 699.318 357.085Z" fill="#D9B29F"/>
<path d="M687.452 410.081C693.692 408.841 698.733 404.17 702.383 398.96C706.511 393.067 709.352 385.915 708.543 378.766C707.734 371.616 702.569 364.704 695.486 363.439C693.324 363.053 691.099 363.187 688.928 363.52C683.943 364.286 678.936 366.239 675.613 370.033C674.431 371.382 673.474 372.946 672.088 374.084C670.702 375.221 668.677 375.854 667.105 374.991C665.167 373.927 664.893 371.33 664.526 369.15C663.919 365.545 662.42 362.094 660.2 359.189C659.475 358.241 658.623 357.105 659.009 355.975C659.127 355.629 659.353 355.332 659.576 355.041C662.908 350.692 666.24 346.343 669.572 341.994C670.416 340.892 671.449 339.688 672.836 339.645C674.384 339.597 675.526 340.992 676.555 342.149C680.866 347 687.157 349.511 693.207 351.859C694.603 352.401 696.064 352.952 697.554 352.805C700.028 352.561 701.993 350.333 702.502 347.9C703.011 345.467 702.301 342.92 701.152 340.716C697.487 333.684 689.801 329.692 682.201 327.431C681.036 327.084 679.824 326.748 678.887 325.974C677.561 324.878 677.029 323.121 676.167 321.632C673.53 317.077 667.606 315.176 662.419 316.073C657.233 316.969 652.72 320.162 648.927 323.811C645.322 327.28 642.049 331.577 641.69 336.567C641.553 338.478 641.852 340.42 641.493 342.302C641.067 344.533 639.76 346.474 638.646 348.454C630.563 362.821 632.774 382.262 643.876 394.447C647.974 398.944 653.816 402.645 659.819 401.648C662.163 401.259 664.363 400.174 666.725 399.914C672.226 399.308 672.05 403.802 675.148 406.726C678.328 409.73 683.201 410.926 687.452 410.081Z" fill="#C19883"/>
<path d="M624.87 515.791C622.383 511.584 619.043 507.95 616.275 503.921C612.462 498.371 609.628 491.95 604.432 487.667C600.293 484.256 595.041 482.54 589.873 481.106C582.731 479.123 575.159 477.534 567.964 479.316C556.272 482.212 548.579 493.052 541.968 503.122C539.871 506.317 537.759 509.545 536.395 513.115C530.955 527.354 539.101 544.062 551.719 552.612C564.337 561.163 580.248 563.154 595.49 563.324C600.618 563.381 605.927 563.22 610.564 561.03C616.796 558.086 620.838 551.968 624.25 545.98C629.206 537.284 630.057 524.565 624.87 515.791Z" fill="#D9B29F"/>
<path d="M600.236 522.183C592.881 529.041 589.861 540.193 592.751 549.825C594.293 554.966 597.344 559.56 601.009 563.481C603.991 566.67 607.437 569.483 611.388 571.34C616.416 573.703 622.091 574.433 627.643 574.22C637.051 573.859 650.172 568.744 653.09 558.836C656.209 548.243 650.508 536.577 643.878 528.598C639.654 523.515 634.516 518.986 628.333 516.649C618.927 513.092 607.591 515.325 600.236 522.183Z" fill="#C19883"/>
<path d="M531.594 547.388C539.593 550.618 549.729 548.712 555.141 541.994C560.051 535.9 560.447 527.376 559.8 519.577C559.411 514.886 558.701 510.198 558.69 505.483C558.677 499.887 558.142 496.221 564.007 497.397C573.781 499.356 581.573 503.999 592.044 502.935C603.321 501.79 614.672 493.766 615.932 482.501C617.024 472.732 610.265 463.425 601.726 458.557C593.187 453.688 583.145 452.356 573.38 451.229C569.404 450.77 565.362 450.332 561.418 451.013C551.066 452.801 542.963 463.207 543.767 473.681C544.016 476.931 544.759 480.855 542.221 482.901C541.318 483.629 540.159 483.937 539.049 484.272C535.057 485.476 531.242 487.265 527.763 489.564C525.279 491.206 522.943 493.131 521.18 495.53C519.587 497.696 518.502 500.193 517.598 502.725C514.697 510.849 513.559 519.798 515.706 528.154C517.854 536.511 523.594 544.157 531.594 547.388Z" fill="#C19883"/>
<path d="M601.46 55.32C599.17 60.19 591.85 66.42 586.98 68.5C571.99 74.91 555.15 78.01 539.23 74.5C523.31 70.99 508.56 60.17 502.83 44.91C500.47 38.64 499.72 31.99 500.12 25.32C500.63 17.02 502.95 8.69 506.23 1.03C506.38 0.69 506.53 0.34 506.68 0H590.48C590.66 0.73 590.86 1.46 591.06 2.18C592.67 7.86 595.1 13.27 597.42 18.71C598.75 21.82 600.04 24.95 601.12 28.15C604.1 36.94 605.41 46.91 601.46 55.32Z" fill="#D9B29F"/>
<path d="M632.94 27.97C630.96 28.71 628.79 28.75 626.67 28.67C624.71 28.6 622.65 28.4 621.05 27.27C619.16 25.92 618.31 23.56 617.66 21.33C616.72 18.12 615.95 14.81 616 11.47C616.04 8.12 616.96 4.7 619.09 2.12C619.78 1.28 620.6 0.53 621.54 0H628.76C629.49 0.32 630.2 0.72 630.86 1.15C638.34 6.1 644.4 23.7 632.94 27.97Z" fill="#C19883"/>
<path d="M597.42 18.71C596.52 21.86 594.84 24.76 592.37 26.9C587.96 30.7 580.86 31.45 576.31 27.83C568.27 21.42 563.28 -11.39 547.69 8.35C543.88 13.18 542.24 19.35 539.02 24.58C535.31 30.62 529.28 35.38 522.33 36.77C515.38 38.17 507.61 35.87 503.13 30.37C501.88 28.83 500.91 27.12 500.12 25.32C498.48 21.57 497.57 17.42 496.3 13.49C494.86 9.01 492.87 4.53 491.67 0H594.87C596.61 3.51 597.85 7.24 598.16 11.12C598.36 13.65 598.12 16.26 597.42 18.71Z" fill="#C19883"/>
<path d="M538.451 91.1482C544.286 92.2892 550.318 91.5542 556.167 90.4862C565.602 88.7642 574.88 86.1822 583.851 82.7832C589.948 80.4722 597.805 73.5332 601.02 68.0092C603.482 63.7792 604.283 58.3582 602.152 53.9522C598.389 46.1732 587.177 44.8522 579.481 48.7842C574.32 51.4212 570.114 55.7902 564.714 57.8952C560.051 59.7122 554.913 59.6832 549.921 60.0352C544.555 60.4132 539.221 61.2592 534.001 62.5592C531.594 63.1592 529.154 63.8822 527.157 65.3532C522.369 68.8772 521.436 76.1892 524.191 81.4572C526.946 86.7242 532.617 90.0072 538.451 91.1482Z" fill="#C19883"/>
<path d="M423.103 516.808C414.24 502.992 396.357 495.249 380.455 499.319C363.814 503.578 351.675 520.052 350.701 537.202C349.727 554.352 358.97 571.265 372.86 581.372C380.447 586.892 390.105 590.645 399.196 588.324C411.994 585.057 421.808 570.57 426.202 558.744C431.307 545.006 431.206 529.441 423.103 516.808Z" fill="#D9B29F"/>
<path d="M398.066 551.482C394.393 559.18 397.687 568.235 400.986 576.101C402.112 578.785 403.323 581.585 405.597 583.401C413.791 589.942 430.994 584.432 433.783 574.531C437.213 562.352 431.705 547.065 418.878 543.125C411.089 540.733 401.574 544.129 398.066 551.482Z" fill="#C19883"/>
<path d="M357.977 583.19C363.279 586.887 369.724 589.24 376.165 588.698C380.784 588.309 385.56 586.146 387.696 582.032C389.652 578.266 389.042 573.692 387.861 569.617C385.542 561.613 381.401 555.056 375.625 549.227C370.747 544.304 369.477 537.698 372.96 531.145C373.444 530.234 374.041 529.337 374.925 528.805C376.014 528.149 377.361 528.145 378.633 528.162C384.629 528.238 390.768 528.339 396.379 530.458C399.01 531.451 401.527 532.888 404.318 533.227C410.696 534.004 416.553 528.533 418.231 522.331C419.909 516.129 418.362 509.524 416.264 503.451C413.647 495.875 409.86 488.23 403.181 483.799C395.605 478.773 385.843 478.828 376.77 479.41C364.715 480.183 352.073 481.805 342.344 488.965C330.304 497.825 325.118 513.964 326.639 528.835C328.16 543.706 335.509 557.421 344.503 569.361C348.392 574.523 352.675 579.493 357.977 583.19Z" fill="#C19883"/>
<path d="M843.654 177.508C834.791 163.692 816.908 155.949 801.006 160.019C784.365 164.278 772.226 180.752 771.252 197.902C770.278 215.052 779.521 231.965 793.411 242.072C800.998 247.592 810.656 251.345 819.747 249.024C832.545 245.757 842.359 231.27 846.753 219.444C851.858 205.705 851.757 190.14 843.654 177.508Z" fill="#D9B29F"/>
<path d="M818.617 212.182C814.944 219.881 818.239 228.935 821.537 236.801C822.662 239.485 823.874 242.285 826.148 244.101C834.342 250.642 851.545 245.132 854.334 235.231C857.765 223.052 852.256 207.765 839.429 203.825C831.641 201.432 822.125 204.828 818.617 212.182Z" fill="#C19883"/>
<path d="M778.528 243.89C783.83 247.587 790.275 249.94 796.716 249.398C801.335 249.009 806.111 246.846 808.247 242.732C810.203 238.966 809.593 234.392 808.412 230.317C806.093 222.313 801.952 215.756 796.176 209.927C791.298 205.004 790.028 198.398 793.511 191.845C793.995 190.934 794.592 190.037 795.475 189.505C796.564 188.849 797.911 188.845 799.183 188.862C805.179 188.938 811.318 189.039 816.929 191.158C819.56 192.151 822.077 193.587 824.868 193.927C831.246 194.704 837.103 189.233 838.781 183.031C840.46 176.829 838.912 170.224 836.814 164.151C834.197 156.576 830.41 148.93 823.731 144.499C816.155 139.472 806.393 139.528 797.32 140.11C785.266 140.883 772.623 142.505 762.894 149.664C750.854 158.524 745.668 174.663 747.189 189.534C748.71 204.405 756.059 218.119 765.053 230.06C768.944 235.222 773.226 240.193 778.528 243.89Z" fill="#C19883"/>
<path d="M354.611 742.98C364.513 729.888 365.598 710.431 356.283 696.915C346.535 682.771 326.881 677.074 310.451 682.087C294.021 687.1 281.344 701.619 276.661 718.146C274.103 727.173 273.919 737.533 279.239 745.262C286.728 756.143 303.714 760.345 316.329 760.381C330.987 760.424 345.558 754.95 354.611 742.98Z" fill="#D9B29F"/>
<path d="M313.421 731.469C304.928 730.683 297.569 736.904 291.328 742.718C289.198 744.702 286.989 746.806 286.072 749.568C282.765 759.517 293.881 773.756 304.136 772.951C316.75 771.961 329.191 761.509 328.455 748.11C328.009 739.975 321.534 732.219 313.421 731.469Z" fill="#C19883"/>
<path d="M269.813 704.809C268.176 711.062 268.195 717.924 270.93 723.78C272.891 727.98 276.572 731.714 281.17 732.297C285.38 732.831 289.461 730.678 292.877 728.162C299.586 723.22 304.308 717.068 307.782 709.633C310.716 703.354 316.476 699.88 323.829 700.883C324.851 701.022 325.899 701.273 326.704 701.918C327.696 702.714 328.165 703.976 328.589 705.175C330.59 710.828 332.616 716.624 332.568 722.621C332.545 725.433 332.067 728.291 332.713 731.028C334.188 737.282 341.346 740.887 347.746 740.319C354.146 739.751 359.809 736.016 364.782 731.948C370.986 726.874 376.852 720.678 378.702 712.88C380.801 704.034 377.375 694.893 373.693 686.58C368.802 675.535 362.911 664.232 352.83 657.577C340.355 649.341 323.418 650.052 309.989 656.619C296.56 663.186 286.23 674.821 278.134 687.387C274.634 692.819 271.449 698.555 269.813 704.809Z" fill="#C19883"/>
<path d="M1000 775.05V863.38C999.76 863.46 999.51 863.53 999.26 863.59C993.77 864.99 988.07 864.18 982.76 862.1C979.26 860.74 975.93 858.83 972.93 856.64C959.04 846.53 949.79 829.62 950.77 812.47C951.74 795.32 963.88 778.84 980.52 774.58C986.93 772.94 993.66 773.22 1000 775.05Z" fill="#D9B29F"/>
<path d="M1000 823.82V848.8C997.13 841.58 994.85 833.62 998.13 826.75C998.64 825.69 999.27 824.71 1000 823.82Z" fill="#C19883"/>
<path d="M1000 757.26V807.2C998.82 806.71 997.64 806.17 996.44 805.72C990.83 803.6 984.7 803.5 978.7 803.42C977.43 803.41 976.08 803.41 974.99 804.07C974.11 804.6 973.51 805.5 973.03 806.41C969.54 812.96 970.81 819.57 975.69 824.49C981.47 830.32 985.61 836.88 987.93 844.88C989.11 848.96 989.72 853.53 987.76 857.3C986.67 859.41 984.87 861.01 982.76 862.1C980.76 863.16 978.48 863.77 976.23 863.96C969.79 864.5 963.35 862.15 958.04 858.45C952.74 854.76 948.46 849.79 944.57 844.62C935.58 832.68 928.23 818.97 926.71 804.1C925.18 789.23 930.37 773.09 942.41 764.23C952.14 757.07 964.78 755.45 976.84 754.67C984.66 754.17 993 754.06 1000 757.26Z" fill="#C19883"/>
<path d="M28.79 825C28.21 828.05 27.36 831.07 26.27 834.01C22.86 843.16 16.21 853.92 7.44 859.82C5.1 861.4 2.62 862.63 0 863.38V775.05C6.92 777.04 13.36 780.87 18.39 786.05C20.17 787.89 21.78 789.91 23.17 792.07C29.54 802 30.96 813.75 28.79 825Z" fill="#D9B29F"/>
<path d="M33.85 849.79C31.25 859.03 16.12 864.44 7.44 859.82C6.81 859.49 6.21 859.1 5.66 858.66C3.39 856.85 2.18 854.05 1.05 851.36C0.7 850.52 0.34 849.66 0 848.8V823.82C4.35 818.53 12.27 816.34 18.94 818.39C22.96 819.62 26.26 821.98 28.79 825C34.35 831.61 36.2 841.44 33.85 849.79Z" fill="#C19883"/>
<path d="M18.3 797.59C16.62 803.8 10.76 809.27 4.38 808.49C2.86 808.3 1.42 807.79 0 807.2V757.26C1.12 757.77 2.21 758.37 3.25 759.06C9.92 763.49 13.71 771.14 16.33 778.71C17.16 781.1 17.89 783.56 18.39 786.05C19.15 789.91 19.32 793.82 18.3 797.59Z" fill="#C19883"/>
</g>
<defs>
<clipPath id="clip0_50_20418">
<rect width="1000" height="1000" fill="white"/>
</clipPath>
</defs>
</svg>
